<svg width="495" height="200" viewBox="0 0 495 200" fill="none" xmlns="http://www.w3.org/2000/svg">
<path d="M256.303 13.2905H250.999L253.663 5.85051L256.303 13.2905ZM261.055 18.9785L255.175 3.04251H252.247L246.271 18.9785H248.983L250.303 15.4025H257.047L258.271 18.9785H261.055ZM271.559 18.9785V7.17052H269.183V13.3385C269.183 15.4265 268.439 17.2745 266.039 17.2745C264.359 17.2745 263.591 16.3625 263.591 14.2025V7.17052H261.191V14.9225C261.191 17.7545 262.871 19.2905 265.295 19.2905C266.999 19.2905 268.535 18.5465 269.303 16.6985V18.9785H271.559ZM278.569 17.1785C276.673 17.1785 275.329 15.7625 275.329 13.0025C275.329 10.4105 276.529 8.97052 278.545 8.97052C280.609 8.97052 281.809 10.4825 281.809 13.0265C281.809 15.6905 280.489 17.1785 278.569 17.1785ZM281.737 19.2905C281.737 21.3065 280.201 22.5065 278.257 22.5065C276.409 22.5065 275.089 21.4505 275.089 19.6265H272.833C272.833 22.6745 275.209 24.5705 278.401 24.5705C281.617 24.5705 284.137 22.6505 284.137 19.0985V7.17052H281.737V9.30651C281.017 7.53051 279.577 6.85852 278.017 6.85852C275.113 6.85852 272.833 9.18652 272.833 13.0745C272.833 16.3625 274.465 19.0745 277.945 19.0745C279.673 19.0745 281.209 18.4025 281.737 16.7225V19.2905ZM296.027 18.9785V7.17052H293.651V13.3385C293.651 15.4265 292.907 17.2745 290.507 17.2745C288.827 17.2745 288.059 16.3625 288.059 14.2025V7.17052H285.659V14.9225C285.659 17.7545 287.339 19.2905 289.763 19.2905C291.467 19.2905 293.003 18.5465 293.771 16.6985V18.9785H296.027ZM307.382 10.7465C307.262 8.32251 305.87 6.85852 302.414 6.85852C299.03 6.85852 297.566 8.25051 297.566 10.2905C297.566 11.5145 298.094 12.7385 300.59 13.4585C301.862 13.8185 303.326 13.9625 304.406 14.4905C304.958 14.7545 305.39 15.1145 305.39 15.7625C305.39 16.6745 304.574 17.4665 302.678 17.4665C300.83 17.4665 299.654 16.6985 299.606 15.1865H297.134C297.182 17.6825 299.246 19.2905 302.702 19.2905C306.014 19.2905 307.718 17.8025 307.718 15.4985C307.718 13.7465 306.71 13.0505 305.462 12.5945C304.046 12.0905 302.27 11.8505 301.262 11.5385C300.326 11.2505 299.894 10.8665 299.894 10.1465C299.894 9.11452 300.782 8.68252 302.318 8.68252C304.214 8.68252 304.934 9.33052 305.078 10.7465H307.382ZM315.733 14.3465C315.733 16.0505 314.989 17.2025 313.357 17.2025C311.677 17.2025 310.981 16.0265 310.981 14.3225V8.89852H317.965V7.17052H310.981V3.97852H308.605V14.5385C308.605 17.0825 309.949 19.2905 313.309 19.2905C316.573 19.2905 317.965 17.0585 317.965 14.5625V11.2025H315.733V14.3465ZM335.09 6.49851C334.778 3.97852 333.194 2.51451 330.482 2.51451C326.882 2.51451 324.794 5.13052 324.794 11.1785C324.794 16.8425 326.618 19.5305 330.098 19.5305C333.41 19.5305 335.378 17.1065 335.378 13.8185C335.378 10.5305 333.434 8.56252 330.842 8.56252C329.186 8.56252 328.01 9.35452 327.17 10.4345C327.314 6.33052 328.346 4.45852 330.482 4.45852C331.778 4.45852 332.57 5.13052 332.714 6.49851H335.09ZM327.194 13.4345C327.482 11.6585 328.682 10.4585 330.242 10.4585C331.898 10.4585 333.026 11.8025 333.026 13.9625C333.026 16.0265 331.994 17.5865 330.17 17.5865C328.322 17.5865 327.218 16.0265 327.194 13.4345ZM343.764 14.3465C343.764 16.0505 343.02 17.2025 341.388 17.2025C339.708 17.2025 339.012 16.0265 339.012 14.3225V8.89852H345.996V7.17052H339.012V3.97852H336.636V14.5385C336.636 17.0825 337.98 19.2905 341.34 19.2905C344.604 19.2905 345.996 17.0585 345.996 14.5625V11.2025H343.764V14.3465ZM357.833 18.9785V10.8185C357.833 8.15451 356.081 6.85852 353.801 6.85852C351.857 6.85852 350.321 7.79452 349.817 9.37852V2.85051H347.417V18.9785H349.817V12.8585C349.817 10.7945 350.537 8.77852 353.057 8.77852C354.569 8.77852 355.409 9.49852 355.409 11.5865V18.9785H357.833ZM375.051 18.9785V16.8905H367.419C367.563 15.3305 368.715 14.2985 370.419 13.0985C373.395 11.0105 375.003 9.83452 375.003 7.12252C375.003 3.95451 372.819 2.51451 369.939 2.51451C366.531 2.51451 364.683 4.53051 364.683 8.05852H366.987C367.011 5.68252 367.875 4.57852 369.891 4.57852C371.667 4.57852 372.651 5.41852 372.651 7.17052C372.651 8.92251 371.643 9.66652 369.339 11.2745C365.259 14.1305 364.515 15.9065 364.467 18.9785H375.051ZM381.171 17.5865C379.299 17.5865 378.291 15.7625 378.291 10.9865C378.291 6.23452 379.299 4.45852 381.171 4.45852C383.043 4.45852 384.051 6.25851 384.051 10.9865C384.051 15.7385 383.043 17.5865 381.171 17.5865ZM381.075 19.5305C384.459 19.5305 386.475 16.7945 386.475 10.8905C386.475 4.96251 384.435 2.51451 381.099 2.51451C377.739 2.51451 375.795 4.96251 375.795 10.9385C375.795 16.9385 377.763 19.5305 381.075 19.5305ZM397.715 18.9785V16.8905H390.083C390.227 15.3305 391.379 14.2985 393.083 13.0985C396.059 11.0105 397.667 9.83452 397.667 7.12252C397.667 3.95451 395.483 2.51451 392.603 2.51451C389.195 2.51451 387.347 4.53051 387.347 8.05852H389.651C389.675 5.68252 390.539 4.57852 392.555 4.57852C394.331 4.57852 395.315 5.41852 395.315 7.17052C395.315 8.92251 394.307 9.66652 392.003 11.2745C387.923 14.1305 387.179 15.9065 387.131 18.9785H397.715ZM408.989 18.9785V16.8905H401.357C401.501 15.3305 402.653 14.2985 404.357 13.0985C407.333 11.0105 408.941 9.83452 408.941 7.12252C408.941 3.95451 406.757 2.51451 403.877 2.51451C400.469 2.51451 398.621 4.53051 398.621 8.05852H400.925C400.949 5.68252 401.813 4.57852 403.829 4.57852C405.605 4.57852 406.589 5.41852 406.589 7.17052C406.589 8.92251 405.581 9.66652 403.277 11.2745C399.197 14.1305 398.453 15.9065 398.405 18.9785H408.989Z" fill="black"/>
<path opacity="0.7" d="M18.3302 40.8585H15.2902L9.49819 51.0985L3.70619 40.8585H0.666191L8.21819 53.7225V61.9785H10.7782V53.7225L18.3302 40.8585ZM26.0742 45.6585C21.2422 45.6585 18.3302 48.7945 18.3302 53.9785C18.3302 59.1625 21.2422 62.2985 26.0742 62.2985C30.9062 62.2985 33.8182 59.1625 33.8182 53.9785C33.8182 48.7945 30.9062 45.6585 26.0742 45.6585ZM26.0742 47.8665C29.3062 47.8665 31.2582 50.1705 31.2582 53.9785C31.2582 57.7865 29.3062 60.0905 26.0742 60.0905C22.8422 60.0905 20.8902 57.7865 20.8902 53.9785C20.8902 50.1705 22.8422 47.8665 26.0742 47.8665ZM50.0869 45.9785V54.6825C50.0869 58.4585 47.6869 60.0585 44.9669 60.0585C42.6629 60.0585 41.1909 59.0665 41.1909 55.7705V45.9785H38.6309V56.4425C38.6309 60.6665 41.3509 62.2985 44.5189 62.2985C47.0789 62.2985 49.1269 61.4665 50.2469 59.5465L50.4069 61.9785H52.6469V45.9785H50.0869ZM77.3817 45.6585C74.9817 45.6585 73.0617 46.8105 72.0697 48.4745V38.6185H69.5097V61.9785H71.7497L71.9097 59.1945C72.8377 61.0185 74.8537 62.2985 77.3817 62.2985C81.8297 62.2985 84.6777 59.1945 84.6777 53.9785C84.6777 48.7625 81.8297 45.6585 77.3817 45.6585ZM77.0937 60.0585C74.0537 60.0585 72.0697 57.7865 72.0697 54.1705V53.7865C72.0697 50.1705 74.0537 47.8985 77.0937 47.8985C80.2297 47.8985 82.1177 50.2665 82.1177 53.9785C82.1177 57.6905 80.2297 60.0585 77.0937 60.0585ZM97.2179 45.6585C94.7219 45.6585 92.9939 46.6505 92.0979 48.6025L91.7459 45.9785H89.6659V61.9785H92.2259V53.3385C92.2259 49.7545 94.5299 48.0585 96.4499 48.0585C97.2819 48.0585 97.9859 48.2185 98.4659 48.4745L98.9779 45.9785C98.4979 45.7225 97.7619 45.6585 97.2179 45.6585ZM108.98 45.6585C104.148 45.6585 101.236 48.7945 101.236 53.9785C101.236 59.1625 104.148 62.2985 108.98 62.2985C113.812 62.2985 116.724 59.1625 116.724 53.9785C116.724 48.7945 113.812 45.6585 108.98 45.6585ZM108.98 47.8665C112.212 47.8665 114.164 50.1705 114.164 53.9785C114.164 57.7865 112.212 60.0905 108.98 60.0905C105.748 60.0905 103.796 57.7865 103.796 53.9785C103.796 50.1705 105.748 47.8665 108.98 47.8665ZM141.581 45.9785L137.549 59.0025L133.197 45.9785H130.637L126.285 59.0025L122.253 45.9785H119.405L124.973 61.9785H127.533L131.789 49.2425L136.301 61.9785H138.861L144.429 45.9785H141.581ZM153.7 62.2985C157.796 62.2985 160.388 60.3465 160.388 57.5625C160.388 54.9385 158.788 53.5945 154.308 52.8585C151.044 52.3145 149.988 51.6105 149.988 50.2345C149.988 49.0505 151.588 47.8985 153.732 47.8985C155.748 47.8985 157.188 48.6665 157.892 50.7785L160.068 49.4985C159.172 46.8745 157.156 45.6585 153.732 45.6585C149.828 45.6585 147.428 47.8665 147.428 50.4585C147.428 53.1465 149.092 54.3945 153.636 55.2265C156.836 55.8025 157.828 56.5065 157.828 57.6905C157.828 59.0025 156.58 60.0585 153.956 60.0585C151.652 60.0585 149.668 59.1945 148.9 57.2425L146.82 58.6825C148.036 61.1465 150.756 62.2985 153.7 62.2985ZM166.415 42.9065C167.567 42.9065 168.335 42.1385 168.335 40.9865C168.335 39.8345 167.567 39.0665 166.415 39.0665C165.263 39.0665 164.495 39.8345 164.495 40.9865C164.495 42.1385 165.263 42.9065 166.415 42.9065ZM167.695 45.9785H165.135V61.9785H167.695V45.9785ZM181.411 45.6585C179.203 45.6585 177.155 46.4585 176.035 48.4745L175.875 45.9785H173.635V61.9785H176.195V53.4665C176.195 49.3705 178.819 47.8985 181.155 47.8985C183.363 47.8985 185.091 49.0825 185.091 52.6345V61.9785H187.651V51.7385C187.651 47.6105 184.835 45.6585 181.411 45.6585ZM202.375 59.9305H197.063C195.815 59.9305 194.951 59.3225 194.951 58.2025C194.951 57.1145 195.463 56.4745 196.743 56.1865C197.447 56.3785 198.279 56.4745 199.207 56.4745C203.047 56.4745 205.767 54.2345 205.767 51.0665C205.767 49.4025 205.031 47.9945 203.751 47.0345C204.199 45.8825 205.415 45.2745 207.559 45.2745L206.983 43.0345C204.583 43.0345 203.079 44.0905 202.471 46.2985C201.511 45.8825 200.423 45.6585 199.207 45.6585C195.367 45.6585 192.647 47.8985 192.647 51.0665C192.647 52.9225 193.447 54.4905 194.983 55.4505C193.575 55.9305 192.583 56.9225 192.583 58.5865C192.583 59.9945 193.543 60.9545 194.759 61.5305C192.999 62.0105 191.943 63.1625 191.943 64.6345C191.943 67.0345 194.247 68.8585 199.303 68.8585C203.623 68.8585 207.207 66.9065 207.207 63.7385C207.207 61.4345 205.415 59.9305 202.375 59.9305ZM199.207 47.7385C201.415 47.7385 203.111 49.0825 203.111 51.0665C203.111 53.0505 201.415 54.3945 199.207 54.3945C196.999 54.3945 195.303 53.0505 195.303 51.0665C195.303 49.0825 196.999 47.7385 199.207 47.7385ZM199.591 66.7145C196.071 66.7145 194.311 65.6905 194.311 64.1225C194.311 62.9065 195.367 62.1385 197.383 62.1385H201.671C204.071 62.1385 204.839 62.8745 204.839 64.0265C204.839 65.4345 202.983 66.7145 199.591 66.7145ZM230.187 58.7145C229.451 59.4505 228.619 59.8985 227.467 59.8985C226.059 59.8985 225.067 59.1305 225.067 57.5625V48.1865H230.987V45.9785H225.067V41.4345L222.507 42.1385V45.9785H219.307V48.1865H222.507V58.0105C222.539 61.1145 224.587 62.2985 226.955 62.2985C228.715 62.2985 230.091 61.7545 231.083 60.8585L230.187 58.7145ZM242.473 45.6585C240.297 45.6585 238.377 46.4585 237.257 48.3785V38.6185H234.697V61.9785H237.257V53.4985C237.257 49.4025 239.881 47.8985 242.217 47.8985C244.425 47.8985 246.153 49.0825 246.153 52.6345V61.9785H248.713V51.7385C248.713 47.6105 245.897 45.6585 242.473 45.6585ZM255.79 42.9065C256.942 42.9065 257.71 42.1385 257.71 40.9865C257.71 39.8345 256.942 39.0665 255.79 39.0665C254.638 39.0665 253.87 39.8345 253.87 40.9865C253.87 42.1385 254.638 42.9065 255.79 42.9065ZM257.07 45.9785H254.51V61.9785H257.07V45.9785ZM268.45 62.2985C272.546 62.2985 275.138 60.3465 275.138 57.5625C275.138 54.9385 273.538 53.5945 269.058 52.8585C265.794 52.3145 264.738 51.6105 264.738 50.2345C264.738 49.0505 266.338 47.8985 268.482 47.8985C270.498 47.8985 271.938 48.6665 272.642 50.7785L274.818 49.4985C273.922 46.8745 271.906 45.6585 268.482 45.6585C264.578 45.6585 262.178 47.8665 262.178 50.4585C262.178 53.1465 263.842 54.3945 268.386 55.2265C271.586 55.8025 272.578 56.5065 272.578 57.6905C272.578 59.0025 271.33 60.0585 268.706 60.0585C266.402 60.0585 264.418 59.1945 263.65 57.2425L261.57 58.6825C262.786 61.1465 265.506 62.2985 268.45 62.2985ZM310.456 45.9785L306.424 59.0025L302.072 45.9785H299.512L295.16 59.0025L291.128 45.9785H288.28L293.848 61.9785H296.408L300.664 49.2425L305.176 61.9785H307.736L313.304 45.9785H310.456ZM330.706 53.1465C330.706 49.0185 328.178 45.6585 323.538 45.6585C318.706 45.6585 315.986 48.7945 315.986 53.9785C315.986 59.1625 318.898 62.2985 323.73 62.2985C327.186 62.2985 329.17 60.9865 330.386 58.8105L328.242 57.6905C327.666 59.2265 326.066 60.0585 323.73 60.0585C320.786 60.0585 318.834 58.1705 318.514 54.9385H330.578C330.642 54.4905 330.706 53.8825 330.706 53.1465ZM323.538 47.8985C326.258 47.8985 327.89 49.7225 328.242 52.6665H318.546C318.93 49.6585 320.69 47.8985 323.538 47.8985ZM343.444 45.6585C341.044 45.6585 339.124 46.8105 338.132 48.4745V38.6185H335.572V61.9785H337.812L337.972 59.1945C338.9 61.0185 340.916 62.2985 343.444 62.2985C347.892 62.2985 350.74 59.1945 350.74 53.9785C350.74 48.7625 347.892 45.6585 343.444 45.6585ZM343.156 60.0585C340.116 60.0585 338.132 57.7865 338.132 54.1705V53.7865C338.132 50.1705 340.116 47.8985 343.156 47.8985C346.292 47.8985 348.18 50.2665 348.18 53.9785C348.18 57.6905 346.292 60.0585 343.156 60.0585ZM361.168 62.2985C365.264 62.2985 367.856 60.3465 367.856 57.5625C367.856 54.9385 366.256 53.5945 361.776 52.8585C358.512 52.3145 357.456 51.6105 357.456 50.2345C357.456 49.0505 359.056 47.8985 361.2 47.8985C363.216 47.8985 364.656 48.6665 365.36 50.7785L367.536 49.4985C366.64 46.8745 364.624 45.6585 361.2 45.6585C357.296 45.6585 354.896 47.8665 354.896 50.4585C354.896 53.1465 356.56 54.3945 361.104 55.2265C364.304 55.8025 365.296 56.5065 365.296 57.6905C365.296 59.0025 364.048 60.0585 361.424 60.0585C359.12 60.0585 357.136 59.1945 356.368 57.2425L354.288 58.6825C355.504 61.1465 358.224 62.2985 361.168 62.2985ZM373.883 42.9065C375.035 42.9065 375.803 42.1385 375.803 40.9865C375.803 39.8345 375.035 39.0665 373.883 39.0665C372.731 39.0665 371.963 39.8345 371.963 40.9865C371.963 42.1385 372.731 42.9065 373.883 42.9065ZM375.163 45.9785H372.603V61.9785H375.163V45.9785ZM389.999 58.7145C389.263 59.4505 388.431 59.8985 387.279 59.8985C385.871 59.8985 384.879 59.1305 384.879 57.5625V48.1865H390.799V45.9785H384.879V41.4345L382.319 42.1385V45.9785H379.119V48.1865H382.319V58.0105C382.351 61.1145 384.399 62.2985 386.767 62.2985C388.527 62.2985 389.903 61.7545 390.895 60.8585L389.999 58.7145ZM408.238 53.1465C408.238 49.0185 405.71 45.6585 401.07 45.6585C396.238 45.6585 393.518 48.7945 393.518 53.9785C393.518 59.1625 396.43 62.2985 401.262 62.2985C404.718 62.2985 406.702 60.9865 407.918 58.8105L405.774 57.6905C405.198 59.2265 403.598 60.0585 401.262 60.0585C398.318 60.0585 396.366 58.1705 396.046 54.9385H408.11C408.174 54.4905 408.238 53.8825 408.238 53.1465ZM401.07 47.8985C403.79 47.8985 405.422 49.7225 405.774 52.6665H396.078C396.462 49.6585 398.222 47.8985 401.07 47.8985Z" fill="black"/>
<circle r="61.5" transform="matrix(-1 0 0 1 432.627 137.817)" fill="#F1F1F1"/>
<g filter="url(#filter0_d_860_390)">
<circle r="31.5" transform="matrix(-1 0 0 1 432.627 137.817)" fill="#0088EB"/>
</g>
<path d="M494.127 7.31738H432.127V130.317" stroke="#0088EB" stroke-width="12"/>
<defs>
<filter id="filter0_d_860_390" x="376.127" y="81.3174" width="113" height="113" filterUnits="userSpaceOnUse" color-interpolation-filters="sRGB">
<feFlood flood-opacity="0" result="BackgroundImageFix"/>
<feColorMatrix in="SourceAlpha" type="matrix" values="0 0 0 0 0 0 0 0 0 0 0 0 0 0 0 0 0 0 127 0" result="hardAlpha"/>
<feOffset/>
<feGaussianBlur stdDeviation="12.5"/>
<feComposite in2="hardAlpha" operator="out"/>
<feColorMatrix type="matrix" values="0 0 0 0 0 0 0 0 0 0.533902 0 0 0 0 0.920521 0 0 0 1 0"/>
<feBlend mode="normal" in2="BackgroundImageFix" result="effect1_dropShadow_860_390"/>
<feBlend mode="normal" in="SourceGraphic" in2="effect1_dropShadow_860_390" result="shape"/>
</filter>
</defs>
</svg>
