<svg width="494" height="199" viewBox="0 0 494 199" fill="none" xmlns="http://www.w3.org/2000/svg">
<path d="M358.573 18.4785V4.70252H363.613V2.54251H350.965V4.70252H356.005V18.4785H358.573ZM367.657 16.7745C365.425 16.7745 364.201 15.2625 364.201 12.5745C364.201 9.88652 365.425 8.39852 367.657 8.39852C369.889 8.39852 371.089 9.88652 371.089 12.5745C371.089 15.2865 369.865 16.7745 367.657 16.7745ZM367.633 18.7905C371.257 18.7905 373.513 16.3185 373.513 12.5505C373.513 8.80651 371.257 6.35852 367.657 6.35852C364.009 6.35852 361.729 8.83052 361.729 12.5745C361.729 16.2225 363.937 18.7905 367.633 18.7905ZM380.166 16.8225C378.294 16.8225 376.974 15.2865 376.974 12.5025C376.974 9.93452 378.102 8.42251 380.142 8.42251C382.35 8.42251 383.406 10.1985 383.406 12.5985C383.406 15.3825 381.99 16.8225 380.166 16.8225ZM385.686 18.4785V2.35051H383.31V8.87852C382.494 7.10251 381.03 6.35852 379.374 6.35852C376.422 6.35852 374.526 8.75851 374.526 12.5025C374.526 16.4865 376.662 18.7905 379.614 18.7905C381.126 18.7905 382.614 18.1905 383.358 16.3665V18.4785H385.686ZM394.773 14.0865C394.701 15.7665 393.285 17.0625 391.293 17.0625C389.925 17.0625 389.253 16.4385 389.253 15.2625C389.253 13.7985 390.261 13.3905 392.157 13.0785C393.429 12.8865 394.437 12.7905 394.797 12.3825L394.773 14.0865ZM397.197 18.4785V11.0145C397.197 8.03851 395.949 6.35852 392.277 6.35852C388.581 6.35852 387.285 8.06252 387.237 10.5105H389.469C389.589 9.11852 390.333 8.23052 392.181 8.23052C393.909 8.23052 394.749 8.97451 394.749 10.2465C394.653 11.1105 393.837 11.2305 392.133 11.4705C389.301 11.8545 386.853 12.2385 386.853 15.3345C386.853 17.5185 388.077 18.7905 390.717 18.7905C392.877 18.7905 394.197 17.9265 394.821 16.8705C394.845 17.1585 394.893 18.2625 394.965 18.4785H397.197ZM406.759 18.7905C406.759 20.7585 405.631 22.0065 403.831 22.0065C402.151 22.0065 400.975 20.9265 400.975 19.1265H398.719C398.719 22.1745 400.567 24.0705 403.735 24.0705C406.927 24.0705 409.159 22.1505 409.159 18.7425V6.67052H406.759V13.8225C406.759 15.5985 405.607 16.6545 403.759 16.6545C402.127 16.6545 401.191 15.8145 401.191 13.8225V6.67052H398.791V14.1585C398.791 17.0145 400.639 18.5985 403.183 18.5985C405.103 18.5985 406.375 17.7105 406.759 16.5585V18.7905Z" fill="black"/>
<path opacity="0.7" d="M18.2028 40.3585H15.1628L9.37075 50.5985L3.57875 40.3585H0.53875L8.09075 53.2225V61.4785H10.6508V53.2225L18.2028 40.3585ZM25.9468 45.1585C21.1148 45.1585 18.2028 48.2945 18.2028 53.4785C18.2028 58.6625 21.1148 61.7985 25.9468 61.7985C30.7788 61.7985 33.6908 58.6625 33.6908 53.4785C33.6908 48.2945 30.7788 45.1585 25.9468 45.1585ZM25.9468 47.3665C29.1788 47.3665 31.1308 49.6705 31.1308 53.4785C31.1308 57.2865 29.1788 59.5905 25.9468 59.5905C22.7148 59.5905 20.7628 57.2865 20.7628 53.4785C20.7628 49.6705 22.7148 47.3665 25.9468 47.3665ZM49.9595 45.4785V54.1825C49.9595 57.9585 47.5595 59.5585 44.8395 59.5585C42.5355 59.5585 41.0635 58.5665 41.0635 55.2705V45.4785H38.5035V55.9425C38.5035 60.1665 41.2235 61.7985 44.3915 61.7985C46.9515 61.7985 48.9995 60.9665 50.1195 59.0465L50.2795 61.4785H52.5195V45.4785H49.9595ZM77.2543 45.1585C74.8542 45.1585 72.9343 46.3105 71.9423 47.9745V38.1185H69.3823V61.4785H71.6223L71.7823 58.6945C72.7103 60.5185 74.7263 61.7985 77.2543 61.7985C81.7023 61.7985 84.5503 58.6945 84.5503 53.4785C84.5503 48.2625 81.7023 45.1585 77.2543 45.1585ZM76.9663 59.5585C73.9263 59.5585 71.9423 57.2865 71.9423 53.6705V53.2865C71.9423 49.6705 73.9263 47.3985 76.9663 47.3985C80.1023 47.3985 81.9903 49.7665 81.9903 53.4785C81.9903 57.1905 80.1023 59.5585 76.9663 59.5585ZM97.0905 45.1585C94.5945 45.1585 92.8665 46.1505 91.9705 48.1025L91.6185 45.4785H89.5385V61.4785H92.0985V52.8385C92.0985 49.2545 94.4025 47.5585 96.3225 47.5585C97.1545 47.5585 97.8585 47.7185 98.3385 47.9745L98.8505 45.4785C98.3705 45.2225 97.6345 45.1585 97.0905 45.1585ZM108.853 45.1585C104.021 45.1585 101.109 48.2945 101.109 53.4785C101.109 58.6625 104.021 61.7985 108.853 61.7985C113.685 61.7985 116.597 58.6625 116.597 53.4785C116.597 48.2945 113.685 45.1585 108.853 45.1585ZM108.853 47.3665C112.085 47.3665 114.037 49.6705 114.037 53.4785C114.037 57.2865 112.085 59.5905 108.853 59.5905C105.621 59.5905 103.669 57.2865 103.669 53.4785C103.669 49.6705 105.621 47.3665 108.853 47.3665ZM141.454 45.4785L137.422 58.5025L133.07 45.4785H130.51L126.158 58.5025L122.126 45.4785H119.278L124.846 61.4785H127.406L131.662 48.7425L136.174 61.4785H138.734L144.302 45.4785H141.454ZM153.572 61.7985C157.668 61.7985 160.26 59.8465 160.26 57.0625C160.26 54.4385 158.66 53.0945 154.18 52.3585C150.916 51.8145 149.86 51.1105 149.86 49.7345C149.86 48.5505 151.46 47.3985 153.604 47.3985C155.62 47.3985 157.06 48.1665 157.764 50.2785L159.94 48.9985C159.044 46.3745 157.028 45.1585 153.604 45.1585C149.7 45.1585 147.3 47.3665 147.3 49.9585C147.3 52.6465 148.964 53.8945 153.508 54.7265C156.708 55.3025 157.7 56.0065 157.7 57.1905C157.7 58.5025 156.452 59.5585 153.828 59.5585C151.524 59.5585 149.54 58.6945 148.772 56.7425L146.692 58.1825C147.908 60.6465 150.628 61.7985 153.572 61.7985ZM166.287 42.4065C167.439 42.4065 168.207 41.6385 168.207 40.4865C168.207 39.3345 167.439 38.5665 166.287 38.5665C165.135 38.5665 164.367 39.3345 164.367 40.4865C164.367 41.6385 165.135 42.4065 166.287 42.4065ZM167.567 45.4785H165.007V61.4785H167.567V45.4785ZM181.283 45.1585C179.075 45.1585 177.027 45.9585 175.907 47.9745L175.747 45.4785H173.507V61.4785H176.067V52.9665C176.067 48.8705 178.691 47.3985 181.027 47.3985C183.235 47.3985 184.963 48.5825 184.963 52.1345V61.4785H187.523V51.2385C187.523 47.1105 184.707 45.1585 181.283 45.1585ZM202.248 59.4305H196.936C195.688 59.4305 194.824 58.8225 194.824 57.7025C194.824 56.6145 195.336 55.9745 196.616 55.6865C197.32 55.8785 198.152 55.9745 199.08 55.9745C202.92 55.9745 205.64 53.7345 205.64 50.5665C205.64 48.9025 204.904 47.4945 203.624 46.5345C204.072 45.3825 205.288 44.7745 207.432 44.7745L206.856 42.5345C204.456 42.5345 202.952 43.5905 202.344 45.7985C201.384 45.3825 200.296 45.1585 199.08 45.1585C195.24 45.1585 192.52 47.3985 192.52 50.5665C192.52 52.4225 193.32 53.9905 194.856 54.9505C193.448 55.4305 192.456 56.4225 192.456 58.0865C192.456 59.4945 193.416 60.4545 194.632 61.0305C192.872 61.5105 191.816 62.6625 191.816 64.1345C191.816 66.5345 194.12 68.3585 199.176 68.3585C203.496 68.3585 207.08 66.4065 207.08 63.2385C207.08 60.9345 205.288 59.4305 202.248 59.4305ZM199.08 47.2385C201.288 47.2385 202.984 48.5825 202.984 50.5665C202.984 52.5505 201.288 53.8945 199.08 53.8945C196.872 53.8945 195.176 52.5505 195.176 50.5665C195.176 48.5825 196.872 47.2385 199.08 47.2385ZM199.464 66.2145C195.944 66.2145 194.184 65.1905 194.184 63.6225C194.184 62.4065 195.24 61.6385 197.256 61.6385H201.544C203.944 61.6385 204.712 62.3745 204.712 63.5265C204.712 64.9345 202.856 66.2145 199.464 66.2145ZM230.06 58.2145C229.324 58.9505 228.492 59.3985 227.34 59.3985C225.932 59.3985 224.94 58.6305 224.94 57.0625V47.6865H230.86V45.4785H224.94V40.9345L222.38 41.6385V45.4785H219.18V47.6865H222.38V57.5105C222.411 60.6145 224.46 61.7985 226.828 61.7985C228.588 61.7985 229.964 61.2545 230.956 60.3585L230.06 58.2145ZM242.346 45.1585C240.17 45.1585 238.25 45.9585 237.13 47.8785V38.1185H234.57V61.4785H237.13V52.9985C237.13 48.9025 239.754 47.3985 242.09 47.3985C244.298 47.3985 246.026 48.5825 246.026 52.1345V61.4785H248.586V51.2385C248.586 47.1105 245.77 45.1585 242.346 45.1585ZM255.662 42.4065C256.814 42.4065 257.582 41.6385 257.582 40.4865C257.582 39.3345 256.814 38.5665 255.662 38.5665C254.51 38.5665 253.742 39.3345 253.742 40.4865C253.742 41.6385 254.51 42.4065 255.662 42.4065ZM256.942 45.4785H254.382V61.4785H256.942V45.4785ZM268.322 61.7985C272.418 61.7985 275.01 59.8465 275.01 57.0625C275.01 54.4385 273.41 53.0945 268.93 52.3585C265.666 51.8145 264.61 51.1105 264.61 49.7345C264.61 48.5505 266.21 47.3985 268.354 47.3985C270.37 47.3985 271.81 48.1665 272.514 50.2785L274.69 48.9985C273.794 46.3745 271.778 45.1585 268.354 45.1585C264.45 45.1585 262.05 47.3665 262.05 49.9585C262.05 52.6465 263.714 53.8945 268.258 54.7265C271.458 55.3025 272.45 56.0065 272.45 57.1905C272.45 58.5025 271.202 59.5585 268.578 59.5585C266.274 59.5585 264.29 58.6945 263.522 56.7425L261.442 58.1825C262.658 60.6465 265.378 61.7985 268.322 61.7985ZM310.329 45.4785L306.297 58.5025L301.945 45.4785H299.385L295.033 58.5025L291.001 45.4785H288.153L293.721 61.4785H296.281L300.537 48.7425L305.049 61.4785H307.609L313.177 45.4785H310.329ZM330.579 52.6465C330.579 48.5185 328.051 45.1585 323.411 45.1585C318.579 45.1585 315.859 48.2945 315.859 53.4785C315.859 58.6625 318.771 61.7985 323.603 61.7985C327.059 61.7985 329.043 60.4865 330.259 58.3105L328.115 57.1905C327.539 58.7265 325.939 59.5585 323.603 59.5585C320.659 59.5585 318.707 57.6705 318.387 54.4385H330.451C330.515 53.9905 330.579 53.3825 330.579 52.6465ZM323.411 47.3985C326.131 47.3985 327.763 49.2225 328.115 52.1665H318.419C318.803 49.1585 320.563 47.3985 323.411 47.3985ZM343.317 45.1585C340.917 45.1585 338.997 46.3105 338.005 47.9745V38.1185H335.445V61.4785H337.685L337.845 58.6945C338.773 60.5185 340.789 61.7985 343.317 61.7985C347.765 61.7985 350.613 58.6945 350.613 53.4785C350.613 48.2625 347.765 45.1585 343.317 45.1585ZM343.029 59.5585C339.989 59.5585 338.005 57.2865 338.005 53.6705V53.2865C338.005 49.6705 339.989 47.3985 343.029 47.3985C346.165 47.3985 348.053 49.7665 348.053 53.4785C348.053 57.1905 346.165 59.5585 343.029 59.5585ZM361.041 61.7985C365.137 61.7985 367.729 59.8465 367.729 57.0625C367.729 54.4385 366.129 53.0945 361.649 52.3585C358.385 51.8145 357.329 51.1105 357.329 49.7345C357.329 48.5505 358.929 47.3985 361.073 47.3985C363.089 47.3985 364.529 48.1665 365.233 50.2785L367.409 48.9985C366.513 46.3745 364.497 45.1585 361.073 45.1585C357.169 45.1585 354.769 47.3665 354.769 49.9585C354.769 52.6465 356.433 53.8945 360.977 54.7265C364.177 55.3025 365.169 56.0065 365.169 57.1905C365.169 58.5025 363.921 59.5585 361.297 59.5585C358.993 59.5585 357.009 58.6945 356.241 56.7425L354.161 58.1825C355.377 60.6465 358.097 61.7985 361.041 61.7985ZM373.756 42.4065C374.908 42.4065 375.676 41.6385 375.676 40.4865C375.676 39.3345 374.908 38.5665 373.756 38.5665C372.604 38.5665 371.836 39.3345 371.836 40.4865C371.836 41.6385 372.604 42.4065 373.756 42.4065ZM375.036 45.4785H372.476V61.4785H375.036V45.4785ZM389.872 58.2145C389.136 58.9505 388.304 59.3985 387.152 59.3985C385.744 59.3985 384.752 58.6305 384.752 57.0625V47.6865H390.672V45.4785H384.752V40.9345L382.192 41.6385V45.4785H378.992V47.6865H382.192V57.5105C382.224 60.6145 384.272 61.7985 386.64 61.7985C388.4 61.7985 389.776 61.2545 390.768 60.3585L389.872 58.2145ZM408.11 52.6465C408.11 48.5185 405.582 45.1585 400.942 45.1585C396.11 45.1585 393.39 48.2945 393.39 53.4785C393.39 58.6625 396.302 61.7985 401.134 61.7985C404.59 61.7985 406.574 60.4865 407.79 58.3105L405.646 57.1905C405.07 58.7265 403.47 59.5585 401.134 59.5585C398.19 59.5585 396.238 57.6705 395.918 54.4385H407.982C408.046 53.9905 408.11 53.3825 408.11 52.6465ZM400.942 47.3985C403.662 47.3985 405.294 49.2225 405.646 52.1665H395.95C396.334 49.1585 398.094 47.3985 400.942 47.3985Z" fill="black"/>
<circle r="61.5" transform="matrix(-1 0 0 1 432.5 137.317)" fill="#F1F1F1"/>
<g filter="url(#filter0_d_860_390)">
<circle r="31.5" transform="matrix(-1 0 0 1 432.5 137.317)" fill="#0088EB"/>
</g>
<path d="M494 6.81738H432V129.817" stroke="#0088EB" stroke-width="12"/>
<defs>
<filter id="filter0_d_860_390" x="376" y="80.8174" width="113" height="113" filterUnits="userSpaceOnUse" color-interpolation-filters="sRGB">
<feFlood flood-opacity="0" result="BackgroundImageFix"/>
<feColorMatrix in="SourceAlpha" type="matrix" values="0 0 0 0 0 0 0 0 0 0 0 0 0 0 0 0 0 0 127 0" result="hardAlpha"/>
<feOffset/>
<feGaussianBlur stdDeviation="12.5"/>
<feComposite in2="hardAlpha" operator="out"/>
<feColorMatrix type="matrix" values="0 0 0 0 0 0 0 0 0 0.533902 0 0 0 0 0.920521 0 0 0 1 0"/>
<feBlend mode="normal" in2="BackgroundImageFix" result="effect1_dropShadow_860_390"/>
<feBlend mode="normal" in="SourceGraphic" in2="effect1_dropShadow_860_390" result="shape"/>
</filter>
</defs>
</svg>
