<svg width="177" height="59" viewBox="0 0 177 59" fill="none" xmlns="http://www.w3.org/2000/svg">
<path d="M9.112 35.9843V8.08031H15.704C24.216 8.08031 27.544 11.9203 27.544 21.5203C27.544 31.1203 24.216 35.9843 16.472 35.9843H9.112ZM18.264 43.2163C29.272 43.2163 36.632 34.4483 36.632 21.5203C36.632 8.59231 28.44 0.720306 16.92 0.720306H0.472V43.2163H18.264ZM47.411 24.4003C47.731 20.0483 50.483 17.4883 53.811 17.4883C57.075 17.4883 60.147 19.7283 60.275 24.4003H47.411ZM68.851 29.6483C68.851 17.1683 63.731 10.8963 54.067 10.8963C44.403 10.8963 38.835 17.1683 38.835 26.8963C38.835 38.2883 44.083 44.0483 54.579 44.0483C61.299 44.0483 66.483 40.4003 68.403 33.9363H59.827C59.251 36.1123 56.883 37.4563 54.195 37.4563C50.099 37.4563 47.411 34.3843 47.155 29.6483H68.851ZM98.6705 21.2643C98.2225 14.4803 94.1265 10.8963 85.0385 10.8963C75.4385 10.8963 71.7905 14.9283 71.7905 20.2403C71.7905 23.0563 72.8145 25.4883 75.7585 27.3443C77.9985 28.7523 80.9425 29.6483 86.2545 30.9283C88.9425 31.5683 91.3105 32.2723 91.3105 34.5123C91.3105 36.8803 88.6865 37.7763 85.7425 37.7763C81.7105 37.7763 79.2145 36.0483 79.2145 33.1043H70.6385C70.7665 39.5043 76.1425 44.0483 85.8065 44.0483C94.7665 44.0483 99.5665 40.1443 99.5665 33.6163C99.5665 29.5203 97.7105 27.3443 94.3825 26.0003C91.9505 25.0403 88.5585 24.3363 84.9745 23.3123C81.5825 22.3523 79.8545 21.5843 79.8545 19.7283C79.8545 17.8723 81.6465 17.1043 84.7825 17.1043C88.5585 17.1043 90.2225 18.1923 90.6705 21.2643H98.6705ZM110.426 43.2163V11.7283H102.106V43.2163H110.426ZM110.426 7.95231V0.208305H102.106V7.95231H110.426ZM129.331 36.9443C125.235 36.9443 122.227 33.3603 122.227 27.7283C122.227 21.2643 124.659 18.1283 129.331 18.1283C134.067 18.1283 136.435 21.3923 136.435 28.2403C136.435 33.5523 133.363 36.9443 129.331 36.9443ZM136.179 44.1763C136.179 48.3363 132.659 50.9603 128.243 50.9603C124.083 50.9603 121.331 48.7203 121.331 44.9443H113.587C113.587 53.0723 120.051 58.1283 128.819 58.1283C137.587 58.1283 144.499 53.0083 144.499 43.5363V11.7283H136.179V15.6323C134.195 12.4323 131.315 10.8963 127.347 10.8963C119.731 10.8963 113.587 17.4883 113.587 27.2803C113.587 35.5363 117.171 43.4723 127.539 43.4723C131.635 43.4723 135.027 41.8083 136.179 38.9923V44.1763ZM176.708 43.2163V21.3923C176.708 14.5443 172.292 10.8963 166.276 10.8963C161.22 10.8963 158.02 12.8163 156.1 16.3363V11.7283H148.164V43.2163H156.484V25.1683C156.484 20.3683 158.596 17.9363 162.948 17.9363C166.916 17.9363 168.324 19.2803 168.324 24.1443V43.2163H176.708Z" fill="url(#paint0_radial_814_313)"/>
<defs>
<radialGradient id="paint0_radial_814_313" cx="0" cy="0" r="1" gradientUnits="userSpaceOnUse" gradientTransform="translate(-1.00001 33.2833) rotate(-5.15285) scale(180.73 160.661)">
<stop stop-color="#FF45D6"/>
<stop offset="0.520833" stop-color="#0088EB"/>
<stop offset="1" stop-color="#00FFA3"/>
</radialGradient>
</defs>
</svg>
