<svg width="194" height="209" viewBox="0 0 194 209" fill="none" xmlns="http://www.w3.org/2000/svg">
<g opacity="0.74">
<path d="M34.2138 34.4326L34.1932 34.3776C26.8268 33.2488 19.1501 31.216 11.0504 27.8859L2.14714 2.31021C10.148 5.98911 17.7258 8.37632 24.9968 9.86417C28.0523 18.0514 31.1089 26.2386 34.1644 34.4257C34.1805 34.428 34.1977 34.4303 34.2138 34.4338C34.2299 34.4361 34.2472 34.4384 34.2633 34.4418L25.0531 9.77355C17.7213 8.27996 10.0767 5.87095 2 2.14502L10.9814 27.9558C19.1409 31.3181 26.8682 33.3646 34.284 34.4957L34.2633 34.4407C34.2472 34.4384 34.2299 34.4361 34.2138 34.4326Z" fill="#D9D9D9"/>
<path d="M55.5359 35.5558C48.6685 35.7944 41.602 35.5419 34.2138 34.4326L25.0245 9.81953C32.3311 11.289 39.3146 11.9005 46.1004 12.0221L55.5359 35.5558Z" fill="#D9D9D9"/>
<path d="M55.5359 35.5558L55.5151 35.5029C48.6626 35.7393 41.6124 35.488 34.2426 34.3856C31.1929 26.2179 28.1443 18.0514 25.0945 9.88371C32.3666 11.3417 39.3202 11.9509 46.0761 12.0736C49.2144 19.9017 52.3526 27.7299 55.4898 35.558C55.5047 35.558 55.5208 35.558 55.5358 35.5569C55.5507 35.5569 55.5668 35.5569 55.5817 35.5557L46.1244 11.9715C39.3099 11.8511 32.2953 11.2362 24.9554 9.75523L34.184 34.4808C41.6067 35.5982 48.7051 35.8494 55.6024 35.6073L55.5817 35.5546C55.5668 35.5546 55.5509 35.5546 55.5359 35.5558Z" fill="#D9D9D9"/>
<path d="M75.6392 33.8534L75.6173 33.8029C69.0499 34.6036 62.4067 35.2805 55.56 35.5019L46.1658 12.0748C52.916 12.2113 59.4627 11.8936 65.9347 11.4519C69.1545 18.921 72.3744 26.3901 75.5955 33.858C75.6104 33.8557 75.6254 33.8546 75.6392 33.8523C75.6541 33.85 75.669 33.8488 75.6828 33.8465L65.9783 11.3452C59.45 11.7903 52.8459 12.1115 46.0336 11.967L55.5105 35.6085C62.4055 35.3894 69.0936 34.7046 75.7047 33.897L75.6828 33.8465C75.6679 33.8488 75.6529 33.85 75.6392 33.8523V33.8534Z" fill="#D9D9D9"/>
<path d="M95.2642 31.527C88.7084 32.2119 82.2134 33.0894 75.6392 33.8534L65.9565 11.3992C72.448 10.9942 78.8613 10.4769 85.3344 10.1522L95.2642 31.527Z" fill="#D9D9D9"/>
<path d="M95.2642 31.527L95.2423 31.4786C88.7014 32.1612 82.2202 33.0353 75.6621 33.7981L66.0219 11.4471C72.4836 11.0433 78.8693 10.5271 85.3137 10.2025C88.6163 17.3125 91.9178 24.4214 95.2205 31.5314C95.2355 31.5302 95.2493 31.5282 95.2642 31.527C95.2792 31.5259 95.2929 31.5233 95.3079 31.5222L85.3551 10.1027C78.8532 10.4273 72.4111 10.947 65.8909 11.3519L75.6161 33.9083C82.2191 33.1397 88.7439 32.2575 95.3297 31.5692L95.3079 31.521C95.2929 31.5222 95.2791 31.5245 95.2642 31.5256L95.2642 31.527Z" fill="#D9D9D9"/>
<path d="M115.233 30.4141L115.21 30.3694C108.412 30.3717 101.818 30.8317 95.286 31.4752L85.3998 10.1991C91.8362 9.91457 98.3334 9.81133 105.034 10.1635C108.418 16.9145 111.803 23.6643 115.188 30.4152C115.203 30.4152 115.218 30.4152 115.234 30.4152H115.28L105.08 10.0775C98.3173 9.71727 91.7626 9.82051 85.2711 10.1073L95.2446 31.5796C101.82 30.9292 108.458 30.4623 115.303 30.46L115.28 30.4152C115.265 30.4152 115.25 30.4152 115.234 30.4152L115.233 30.4141Z" fill="#D9D9D9"/>
<path d="M136.452 31.9915C129.066 30.873 122.043 30.429 115.233 30.4141L105.056 10.1199C111.783 10.4951 118.723 11.2992 126.027 12.7779L136.452 31.9926V31.9915Z" fill="#D9D9D9"/>
<path d="M136.452 31.9915L136.429 31.9492C129.059 30.8318 122.051 30.3867 115.256 30.3695L105.124 10.1683C111.822 10.5422 118.732 11.3429 126.002 12.8113C129.469 19.2032 132.935 25.594 136.402 31.9859C136.418 31.9882 136.435 31.9903 136.452 31.9926C136.468 31.9949 136.485 31.9973 136.501 31.9996L126.054 12.7448C118.716 11.2558 111.745 10.4482 104.99 10.0719L115.211 30.459C122.051 30.4716 129.105 30.9156 136.525 32.0421L136.502 31.9996C136.486 31.9973 136.469 31.995 136.453 31.9927L136.452 31.9915Z" fill="#D9D9D9"/>
<path d="M159.908 37.3738L159.884 37.3337C151.604 34.7755 143.853 33.0548 136.478 31.957L126.1 12.8306C133.377 14.2829 141.028 16.3558 149.206 19.2603L159.852 37.3566C159.87 37.3623 159.888 37.3681 159.907 37.3738C159.925 37.3795 159.944 37.3853 159.962 37.391L149.267 19.2179C141.01 16.2778 133.294 14.1865 125.954 12.725L136.424 32.0281C143.846 33.1271 151.647 34.8547 159.986 37.4323L159.962 37.3922C159.944 37.3864 159.925 37.3807 159.907 37.3749L159.908 37.3738Z" fill="#D9D9D9"/>
<path d="M43.4022 59.0469C35.937 58.276 28.1603 56.5977 19.9571 53.6151L11.0159 27.9213C19.1364 31.2641 26.8303 33.3027 34.2138 34.4326L43.4022 59.0469Z" fill="#D9D9D9"/>
<path d="M43.4022 59.0469L43.3817 58.9919C35.9326 58.2222 28.1743 56.5485 19.9918 53.5785L11.0897 28.0006C19.1721 31.3216 26.8327 33.3509 34.1841 34.4797C37.2396 42.6669 40.2963 50.8541 43.3518 59.0412C43.3679 59.0424 43.3851 59.0447 43.4012 59.0458C43.4185 59.047 43.4345 59.0493 43.4506 59.0504L34.2416 34.3845C26.827 33.2522 19.0986 31.2046 10.9402 27.84L19.9205 53.6508C28.1628 56.6517 35.9728 58.3358 43.4713 59.1055L43.4506 59.0504C43.4345 59.0493 43.4173 59.047 43.4012 59.0458L43.4022 59.0469Z" fill="#D9D9D9"/>
<path d="M64.9713 59.0894L64.9506 59.0366C58.0165 59.6331 50.8836 59.741 43.4322 58.9965C40.3824 50.8288 37.3338 42.6622 34.2841 34.4946C41.6377 35.5935 48.673 35.8447 55.5117 35.6096C58.6499 43.4377 61.7882 51.2659 64.9253 59.094C64.9403 59.0928 64.9564 59.0917 64.9713 59.0905C64.9863 59.0894 65.0023 59.0883 65.0173 59.0871L55.5599 35.5029C48.6626 35.7438 41.5653 35.4903 34.1427 34.3718L43.3713 59.0974C50.8767 59.8534 58.0579 59.7433 65.038 59.1387L65.0173 59.086C65.0023 59.0871 64.9863 59.0882 64.9713 59.0894Z" fill="#D9D9D9"/>
<path d="M85.3218 56.3076C78.6567 57.4708 71.9169 58.5101 64.9713 59.0894L55.5359 35.5558C62.3999 35.3367 69.0568 34.6564 75.6392 33.8534L85.3218 56.3076Z" fill="#D9D9D9"/>
<path d="M85.3218 56.3076L85.2999 56.2572C78.6497 57.4169 71.9249 58.4539 64.9965 59.0333L55.6024 35.6062C62.4342 35.3848 69.0636 34.708 75.6172 33.9084C78.8371 41.3775 82.057 48.8466 85.2781 56.3145C85.293 56.3122 85.3079 56.3099 85.3229 56.3065C85.3378 56.3042 85.3528 56.3019 85.3677 56.2985L75.6632 33.7972C69.0522 34.6036 62.3652 35.2862 55.4702 35.5041L64.9471 59.1457C71.9249 58.5652 78.6957 57.519 85.3896 56.3489L85.3677 56.2985C85.3528 56.3008 85.3378 56.303 85.3229 56.3065L85.3218 56.3076Z" fill="#D9D9D9"/>
<path d="M105.194 52.9006L105.172 52.8524C98.5495 53.894 91.9856 55.1272 85.3447 56.2491L75.7045 33.8981C82.2489 33.1352 88.7163 32.2623 95.2423 31.5786C98.5449 38.6886 101.846 45.7975 105.149 52.9075C105.164 52.9052 105.179 52.9029 105.194 52.9006C105.209 52.8983 105.224 52.896 105.239 52.8937L95.286 31.4742C88.7013 32.1602 82.1765 33.0412 75.5735 33.8086L85.2987 56.365C91.9845 55.235 98.5921 53.9904 105.261 52.9419L105.239 52.8937C105.224 52.896 105.209 52.8983 105.194 52.9006Z" fill="#D9D9D9"/>
<path d="M125.41 50.7084C118.514 51.072 111.823 51.8945 105.194 52.9006L95.2642 31.5256C101.811 30.8798 108.419 30.4165 115.233 30.4131L125.41 50.7073V50.7084Z" fill="#D9D9D9"/>
<path d="M125.41 50.7084L125.387 50.6635C118.506 51.026 111.83 51.8451 105.216 52.8466L95.3297 31.5704C101.848 30.9269 108.427 30.4669 115.21 30.46C118.594 37.2109 121.979 43.9608 125.364 50.7117C125.379 50.7117 125.395 50.7106 125.41 50.7094L125.456 50.7071L115.256 30.3695C108.411 30.3695 101.774 30.8351 95.1987 31.4844L105.172 52.9567C111.83 51.9449 118.551 51.1167 125.479 50.753L125.456 50.7083C125.441 50.7083 125.425 50.7094 125.41 50.7106L125.41 50.7084Z" fill="#D9D9D9"/>
<path d="M146.876 51.2061L146.853 51.1637C139.401 50.4054 132.312 50.3194 125.434 50.6612L115.303 30.46C122.083 30.476 129.074 30.9177 136.426 32.0281C139.893 38.42 143.359 44.8108 146.826 51.2027C146.844 51.2038 146.86 51.2061 146.877 51.2073C146.894 51.2084 146.91 51.2107 146.926 51.2119L136.479 31.957C129.059 30.8294 122.005 30.3831 115.167 30.3694L125.388 50.7565C132.311 50.4066 139.447 50.4903 146.95 51.2543L146.927 51.2119C146.91 51.2107 146.894 51.2084 146.878 51.2073L146.876 51.2061Z" fill="#D9D9D9"/>
<path d="M170.579 55.5079C162.198 53.3054 154.349 51.9426 146.876 51.2061L136.452 31.9915C143.843 33.0893 151.608 34.8111 159.908 37.3738L170.579 55.509V55.5079Z" fill="#D9D9D9"/>
<path d="M170.579 55.5079L170.555 55.4679C162.192 53.27 154.36 51.9072 146.902 51.1684L136.524 32.042C143.883 33.1364 151.616 34.8502 159.876 37.3969L170.522 55.4931C170.54 55.4977 170.56 55.5023 170.578 55.5081C170.597 55.5126 170.616 55.5172 170.634 55.523L159.939 37.3499C151.6 34.7711 143.801 33.0412 136.378 31.9411L146.848 51.2441C154.353 51.9806 162.237 53.348 170.659 55.5631L170.634 55.523C170.616 55.5184 170.597 55.5138 170.578 55.5081L170.579 55.5079Z" fill="#D9D9D9"/>
<path d="M52.5906 83.6602L52.5699 83.6051C45.0392 83.1945 37.1981 81.8798 28.934 79.2689L20.0319 53.6921C28.1972 56.6552 35.9382 58.3254 43.3724 59.0963C46.4279 67.2835 49.4845 75.4707 52.54 83.6579C52.5573 83.6579 52.5734 83.6602 52.5906 83.6602C52.6078 83.6602 52.6239 83.6625 52.6412 83.6625L43.4322 58.9965C35.9348 58.2256 28.1247 56.5393 19.8825 53.5372L28.8627 79.3481C37.1878 81.9876 45.0806 83.3103 52.6619 83.7176L52.6412 83.6625C52.6239 83.6625 52.6078 83.6602 52.5906 83.6602Z" fill="#D9D9D9"/>
<path d="M74.4069 82.6232C67.3739 83.581 60.1432 84.0491 52.5906 83.6602L43.4024 59.0458C50.8733 59.7949 58.0223 59.6871 64.9713 59.0894L74.4069 82.6232Z" fill="#D9D9D9"/>
<path d="M74.4069 82.6232L74.386 82.5703C67.3692 83.5259 60.1558 83.9928 52.6205 83.6073C49.5707 75.4396 46.5221 67.2731 43.4723 59.1054C50.9088 59.8465 58.0256 59.7386 64.9459 59.1444C68.0842 66.9725 71.2225 74.8007 74.3596 82.6288C74.3757 82.6265 74.3906 82.6242 74.4067 82.6219C74.4228 82.6196 74.4378 82.6173 74.4539 82.6151L64.9965 59.0309C58.0164 59.6331 50.8363 59.7409 43.3309 58.9838L52.5595 83.7094C60.1477 84.1029 67.4117 83.6314 74.4746 82.6667L74.4539 82.6139C74.4378 82.6162 74.4228 82.6185 74.4067 82.6208L74.4069 82.6232Z" fill="#D9D9D9"/>
<path d="M95.0045 78.7619L94.9826 78.7114C88.2509 80.2302 81.4432 81.6263 74.4321 82.5647L65.038 59.1376C71.9525 58.5572 78.6623 57.5224 85.2987 56.365C88.5186 63.8341 91.7386 71.3031 94.9596 78.771C94.9746 78.7676 94.9895 78.7642 95.0045 78.7607C95.0194 78.7573 95.0343 78.7538 95.0493 78.7504L85.3447 56.2491C78.6508 57.4169 71.8813 58.4608 64.9035 59.0401L74.3804 82.6817C81.4409 81.7387 88.2934 80.3323 95.0711 78.8009L95.0493 78.7504C95.0343 78.7538 95.0194 78.7573 95.0045 78.7607V78.7619Z" fill="#D9D9D9"/>
<path d="M115.124 74.2754C108.403 75.6795 101.743 77.2775 95.0045 78.7619L85.3218 56.3076C91.9777 55.1834 98.5564 53.9456 105.194 52.9006L115.124 74.2754Z" fill="#D9D9D9"/>
<path d="M115.124 74.2754L115.102 74.2272C108.397 75.6279 101.751 77.2201 95.0285 78.7011L85.3884 56.3501C92.0144 55.2293 98.5634 53.9973 105.172 52.9557C108.475 60.0657 111.776 67.1746 115.079 74.2846C115.094 74.2811 115.109 74.2788 115.124 74.2754C115.139 74.2719 115.154 74.2697 115.169 74.2662L105.216 52.8466C98.5485 53.8939 91.9409 55.1376 85.2551 56.2652L94.9803 78.8216C101.749 77.3303 108.439 75.7243 115.191 74.3133L115.169 74.2651C115.154 74.2685 115.139 74.2708 115.124 74.2743L115.124 74.2754Z" fill="#D9D9D9"/>
<path d="M135.587 71.0024L135.564 70.9577C128.601 71.6792 121.843 72.8574 115.147 74.2179L105.261 52.9419C111.86 51.9404 118.522 51.1212 125.387 50.7564C128.771 57.5074 132.156 64.2572 135.541 71.0082C135.557 71.007 135.572 71.0047 135.588 71.0036C135.604 71.0024 135.619 71.0001 135.635 70.999L125.434 50.6612C118.506 51.0237 111.788 51.8497 105.13 52.8603L115.103 74.3326C121.844 72.9595 128.647 71.7699 135.658 71.0437L135.635 70.999C135.619 71.0001 135.604 71.0024 135.588 71.0036L135.587 71.0024Z" fill="#D9D9D9"/>
<path d="M157.3 70.421C149.749 70.0218 142.561 70.2981 135.587 71.0024L125.41 50.7084C132.303 50.3631 139.407 50.4467 146.876 51.2061L157.3 70.421Z" fill="#D9D9D9"/>
<path d="M157.3 70.421L157.277 70.3786C149.743 69.9794 142.572 70.2524 135.611 70.9533L125.479 50.753C132.342 50.4112 139.415 50.4928 146.849 51.2453C150.316 57.6372 153.782 64.028 157.249 70.4199C157.266 70.4199 157.282 70.421 157.3 70.4222C157.317 70.4222 157.333 70.4245 157.35 70.4245L146.903 51.1696C139.4 50.4033 132.264 50.3184 125.342 50.666L135.564 71.0531C142.569 70.3419 149.787 70.0631 157.374 70.4669L157.351 70.4245C157.334 70.4245 157.318 70.4233 157.301 70.4222L157.3 70.421Z" fill="#D9D9D9"/>
<path d="M181.25 73.6433L181.225 73.6032C172.781 71.7643 164.866 70.7617 157.326 70.3808L146.948 51.2544C154.39 51.9909 162.204 53.3457 170.546 55.5345L181.192 73.6307C181.21 73.6341 181.23 73.6387 181.248 73.6422C181.267 73.6468 181.286 73.6502 181.305 73.6548L170.609 55.4817C162.188 53.2643 154.305 51.8957 146.8 51.1581L157.27 70.4611C164.858 70.8363 172.825 71.8423 181.328 73.6961L181.304 73.6559C181.285 73.6514 181.266 73.6479 181.247 73.6433H181.25Z" fill="#D9D9D9"/>
<path d="M61.779 108.274C54.1483 108.224 46.2072 107.265 37.8396 105.003L28.8984 79.309C37.1844 81.9313 45.0427 83.2494 52.5906 83.6612L61.779 108.276V108.274Z" fill="#D9D9D9"/>
<path d="M61.779 108.274L61.7583 108.219C54.1448 108.168 46.2233 107.213 37.8753 104.96L28.9731 79.3835C37.22 81.9875 45.0438 83.2999 52.5596 83.7128C55.6151 91.9 58.6718 100.087 61.7273 108.274C61.7445 108.274 61.7618 108.274 61.7778 108.274C61.7951 108.274 61.8123 108.274 61.8284 108.274L52.6194 83.6085C45.0392 83.1989 37.1464 81.8751 28.8214 79.2332L37.8017 105.044C46.2083 107.322 54.1851 108.282 61.848 108.329L61.8273 108.274C61.81 108.274 61.7928 108.274 61.7767 108.274L61.779 108.274Z" fill="#D9D9D9"/>
<path d="M83.8423 106.158L83.8216 106.105C76.7231 107.42 69.4269 108.246 61.81 108.219C58.7602 100.052 55.7116 91.8852 52.6619 83.7176C60.1799 84.1007 67.3796 83.6349 74.3815 82.6816C77.5198 90.5097 80.658 98.3379 83.7952 106.166C83.8112 106.163 83.8273 106.16 83.8423 106.157C83.8584 106.153 83.8745 106.151 83.8894 106.148L74.4321 82.5634C67.3692 83.527 60.1064 83.9974 52.5182 83.6016L61.7468 108.327C69.4177 108.359 76.7634 107.527 83.9101 106.199L83.8894 106.146C83.8733 106.15 83.8572 106.152 83.8423 106.156V106.158Z" fill="#D9D9D9"/>
<path d="M104.687 101.216C97.8577 103.098 90.9522 104.858 83.8423 106.158L74.4069 82.6242C81.4353 81.6847 88.2578 80.2853 95.0045 78.7619L104.687 101.216Z" fill="#D9D9D9"/>
<path d="M104.687 101.216L104.665 101.166C97.8508 103.044 90.9615 104.799 83.8688 106.096L74.4747 82.669C81.4709 81.7306 88.2635 80.3369 94.9803 78.8216C98.2002 86.2906 101.42 93.7596 104.641 101.228C104.656 101.223 104.671 101.22 104.687 101.215C104.702 101.21 104.718 101.207 104.733 101.202L95.0285 78.7011C88.252 80.2302 81.3996 81.6366 74.3391 82.5772L83.8159 106.219C90.9592 104.914 97.8945 103.146 104.755 101.253L104.733 101.202C104.718 101.207 104.703 101.21 104.687 101.215L104.687 101.216Z" fill="#D9D9D9"/>
<path d="M125.054 95.649L125.032 95.6008C118.245 97.3605 111.517 99.313 104.712 101.152L95.0723 78.8008C101.78 77.3221 108.412 75.731 115.102 74.3315C118.405 81.4415 121.706 88.5504 125.009 95.6604C125.024 95.657 125.039 95.6524 125.055 95.649C125.07 95.6455 125.085 95.6409 125.101 95.6375L115.148 74.218C108.398 75.6267 101.707 77.2315 94.9389 78.7216L104.664 101.278C111.515 99.4254 118.289 97.4569 125.122 95.6857L125.1 95.6375C125.085 95.6409 125.07 95.6455 125.054 95.649Z" fill="#D9D9D9"/>
<path d="M145.764 91.2968C138.703 92.3809 131.848 93.9225 125.054 95.649L115.124 74.2743C121.835 72.908 128.608 71.7251 135.587 71.0024L145.764 91.2968Z" fill="#D9D9D9"/>
<path d="M145.764 91.2968L145.741 91.252C138.695 92.3326 131.856 93.8698 125.077 95.5905L115.191 74.3143C121.872 72.955 128.615 71.7768 135.563 71.0541C138.947 77.8051 142.331 84.5549 145.717 91.3059C145.733 91.3036 145.748 91.3013 145.764 91.299C145.78 91.2967 145.795 91.2944 145.811 91.2921L135.611 70.9543C128.6 71.6782 121.798 72.8666 115.057 74.2386L125.031 95.7109C131.854 93.9753 138.74 92.4243 145.834 91.338L145.811 91.2933C145.795 91.2956 145.78 91.2978 145.764 91.3001L145.764 91.2968Z" fill="#D9D9D9"/>
<path d="M167.723 89.6357L167.7 89.5933C160.084 89.5531 152.83 90.1852 145.788 91.2452L135.656 71.0439C142.6 70.343 149.756 70.0677 157.272 70.4623C160.739 76.8542 164.205 83.245 167.672 89.6369C167.689 89.6369 167.707 89.6369 167.723 89.6369C167.74 89.6369 167.757 89.6369 167.773 89.6369L157.326 70.382C149.74 69.9771 142.521 70.2547 135.517 70.9636L145.739 91.3507C152.827 90.2781 160.128 89.638 167.797 89.6793L167.774 89.6369C167.757 89.6369 167.74 89.6369 167.724 89.6369L167.723 89.6357Z" fill="#D9D9D9"/>
<path d="M191.921 91.7774C183.375 90.2942 175.361 89.6529 167.723 89.6346L157.299 70.4198C164.855 70.7973 172.784 71.7999 181.248 73.6422L191.921 91.7774Z" fill="#D9D9D9"/>
<path d="M191.921 91.7774L191.897 91.7372C183.369 90.2573 175.373 89.6138 167.75 89.5931L157.372 70.4668C164.896 70.8442 172.792 71.8422 181.216 73.6719L191.862 91.7681C191.882 91.7716 191.9 91.775 191.92 91.7773C191.939 91.7808 191.957 91.7842 191.977 91.7865L181.282 73.6134C172.777 71.7584 164.812 70.7513 157.224 70.3738L167.694 89.6769C175.365 89.6907 183.414 90.3342 192 91.8266L191.976 91.7865C191.956 91.7831 191.938 91.7796 191.918 91.7773L191.921 91.7774Z" fill="#D9D9D9"/>
<path d="M34.2138 34.4326L34.1932 34.3776C26.8268 33.2488 19.1501 31.216 11.0504 27.8859L2.14714 2.31021C10.148 5.98911 17.7258 8.37632 24.9968 9.86417C28.0523 18.0514 31.1089 26.2386 34.1644 34.4257C34.1805 34.428 34.1977 34.4303 34.2138 34.4338M34.2138 34.4326C34.2299 34.4361 34.2472 34.4384 34.2633 34.4407L34.284 34.4957C26.8682 33.3646 19.1409 31.3181 10.9814 27.9558L2 2.14502C10.0767 5.87095 17.7213 8.27996 25.0531 9.77355L34.2633 34.4418C34.2472 34.4384 34.2299 34.4361 34.2138 34.4338M34.2138 34.4326C41.602 35.5419 48.6685 35.7944 55.5359 35.5558M34.2138 34.4326L25.0245 9.81953C32.3311 11.289 39.3146 11.9005 46.1004 12.0221L55.5359 35.5558M34.2138 34.4326C26.8303 33.3027 19.1364 31.2641 11.0159 27.9213L19.9571 53.6151C28.1603 56.5977 35.937 58.276 43.4022 59.0469M34.2138 34.4326L43.4022 59.0469M34.2138 34.4338L34.1932 34.3787M55.5359 35.5558L55.5151 35.5029C48.6626 35.7393 41.6124 35.488 34.2426 34.3856C31.1929 26.2179 28.1443 18.0514 25.0945 9.88371C32.3666 11.3417 39.3202 11.9509 46.0761 12.0736C49.2144 19.9017 52.3526 27.7299 55.4898 35.558C55.5047 35.558 55.5208 35.558 55.5358 35.5569M55.5359 35.5558C55.5509 35.5546 55.5668 35.5546 55.5817 35.5546L55.6024 35.6073C48.7051 35.8494 41.6067 35.5982 34.184 34.4808L24.9554 9.75523C32.2953 11.2362 39.3099 11.8511 46.1244 11.9715L55.5817 35.5557C55.5668 35.5569 55.5507 35.5569 55.5358 35.5569M55.5359 35.5558L64.9713 59.0894M55.5359 35.5558C62.3999 35.3367 69.0568 34.6564 75.6392 33.8534M55.5358 35.5569L55.5151 35.5041M75.6392 33.8534L75.6173 33.8029C69.0499 34.6036 62.4067 35.2805 55.56 35.5019L46.1658 12.0748C52.916 12.2113 59.4627 11.8936 65.9347 11.4519C69.1545 18.921 72.3744 26.3901 75.5955 33.858C75.6104 33.8557 75.6254 33.8546 75.6392 33.8523M75.6392 33.8534V33.8523M75.6392 33.8534C82.2134 33.0894 88.7084 32.2119 95.2642 31.527M75.6392 33.8534L65.9565 11.3992C72.448 10.9942 78.8613 10.4769 85.3344 10.1522L95.2642 31.527M75.6392 33.8534L85.3218 56.3076M75.6392 33.8523L75.6173 33.8018M75.6392 33.8523C75.6541 33.85 75.669 33.8488 75.6828 33.8465M75.6392 33.8523C75.6529 33.85 75.6679 33.8488 75.6828 33.8465M75.6828 33.8465L65.9783 11.3452C59.45 11.7903 52.8459 12.1115 46.0336 11.967L55.5105 35.6085C62.4055 35.3894 69.0936 34.7046 75.7047 33.897L75.6828 33.8465ZM95.2642 31.527L95.2423 31.4786C88.7014 32.1612 82.2202 33.0353 75.6621 33.7981L66.0219 11.4471C72.4835 11.0433 78.8693 10.5271 85.3137 10.2025C88.6163 17.3125 91.9178 24.4214 95.2205 31.5314C95.2354 31.5302 95.2493 31.5282 95.2642 31.527ZM95.2642 31.527C95.2792 31.5259 95.2929 31.5233 95.3079 31.5222L85.3551 10.1027C78.8532 10.4273 72.4111 10.947 65.8909 11.3519L75.6161 33.9083C82.2191 33.1397 88.7439 32.2575 95.3297 31.5692L95.3079 31.521C95.2929 31.5222 95.2791 31.5245 95.2642 31.5256M95.2642 31.527L95.2642 31.5256M95.2642 31.5256L105.194 52.9006M95.2642 31.5256C101.811 30.8798 108.419 30.4165 115.233 30.4131L125.41 50.7073V50.7084M115.233 30.4141L115.21 30.3694C108.412 30.3717 101.818 30.8317 95.286 31.4752L85.3998 10.1991C91.8362 9.91457 98.3334 9.81133 105.034 10.1635C108.418 16.9145 111.803 23.6643 115.188 30.4152C115.203 30.4152 115.218 30.4152 115.234 30.4152M115.233 30.4141L115.234 30.4152M115.233 30.4141C122.043 30.429 129.066 30.873 136.452 31.9915M115.233 30.4141L105.056 10.1199C111.783 10.4951 118.723 11.2992 126.027 12.7779L136.452 31.9926M115.234 30.4152L115.211 30.3705M115.234 30.4152H115.28M115.234 30.4152C115.25 30.4152 115.265 30.4152 115.28 30.4152M115.28 30.4152L105.08 10.0775C98.3173 9.71727 91.7626 9.82051 85.2711 10.1073L95.2446 31.5796C101.82 30.9292 108.458 30.4623 115.303 30.46M115.28 30.4152L115.303 30.46M115.303 30.46L125.434 50.6612M115.303 30.46C122.083 30.476 129.074 30.9177 136.426 32.0281C139.893 38.42 143.359 44.8108 146.826 51.2027C146.844 51.2038 146.86 51.2061 146.877 51.2073M136.452 31.9915V31.9926M136.452 31.9915L136.429 31.9492C129.059 30.8318 122.051 30.3867 115.256 30.3695M136.452 31.9915L136.453 31.9927C136.469 31.995 136.486 31.9973 136.502 31.9996L136.525 32.0421C129.105 30.9156 122.051 30.4716 115.211 30.459L104.99 10.0719C111.745 10.4482 118.716 11.2558 126.054 12.7448L136.501 31.9996C136.485 31.9973 136.468 31.9949 136.452 31.9926M136.452 31.9915L146.876 51.2061M136.452 31.9915C143.843 33.0893 151.608 34.8111 159.908 37.3738M136.452 31.9926C136.435 31.9903 136.418 31.9882 136.402 31.9859C132.935 25.594 129.469 19.2032 126.002 12.8113C118.732 11.3429 111.822 10.5422 105.124 10.1683L115.256 30.3695M136.452 31.9926L136.429 31.9503M115.256 30.3695L125.456 50.7071L125.41 50.7094M115.256 30.3695C108.411 30.3695 101.774 30.8351 95.1987 31.4844L105.172 52.9567C111.83 51.9449 118.551 51.1167 125.479 50.753M159.908 37.3738L159.884 37.3337C151.604 34.7755 143.853 33.0548 136.478 31.957L126.1 12.8306C133.377 14.2829 141.028 16.3558 149.206 19.2603L159.852 37.3566C159.87 37.3623 159.888 37.3681 159.907 37.3738M159.908 37.3738L159.907 37.3749C159.925 37.3807 159.944 37.3864 159.962 37.3922L159.986 37.4323C151.647 34.8547 143.846 33.1271 136.424 32.0281L125.954 12.725C133.294 14.1865 141.01 16.2778 149.267 19.2179L159.962 37.391C159.944 37.3853 159.925 37.3795 159.907 37.3738M159.908 37.3738L170.579 55.509V55.5079M159.907 37.3738L159.883 37.3337M43.4022 59.0469L43.3817 58.9919C35.9326 58.2222 28.1743 56.5485 19.9918 53.5785L11.0897 28.0006C19.1721 31.3216 26.8327 33.3509 34.1841 34.4797C37.2396 42.6669 40.2963 50.8541 43.3518 59.0412C43.3679 59.0424 43.3851 59.0447 43.4012 59.0458M43.4022 59.0469L43.4012 59.0458M43.4012 59.0458L43.3805 58.9908M43.4012 59.0458C43.4185 59.047 43.4345 59.0493 43.4506 59.0504M43.4012 59.0458C43.4173 59.047 43.4345 59.0493 43.4506 59.0504M43.4506 59.0504L34.2416 34.3845C26.827 33.2522 19.0986 31.2046 10.9402 27.84L19.9205 53.6508C28.1628 56.6517 35.9728 58.3358 43.4713 59.1055L43.4506 59.0504ZM64.9713 59.0894L64.9506 59.0366C58.0165 59.6331 50.8836 59.741 43.4322 58.9965M64.9713 59.0894C64.9863 59.0883 65.0023 59.0871 65.0173 59.086L65.038 59.1387C58.0579 59.7433 50.8767 59.8534 43.3713 59.0974L34.1427 34.3718C41.5653 35.4903 48.6626 35.7438 55.5599 35.5029L65.0173 59.0871C65.0023 59.0883 64.9863 59.0894 64.9713 59.0905M64.9713 59.0894C71.9169 58.5101 78.6567 57.4708 85.3218 56.3076M64.9713 59.0894C58.0223 59.6871 50.8733 59.7949 43.4024 59.0458L52.5906 83.6602M64.9713 59.0894L74.4069 82.6232M43.4322 58.9965C40.3824 50.8288 37.3338 42.6622 34.2841 34.4946C41.6377 35.5935 48.673 35.8448 55.5117 35.6096C58.6499 43.4377 61.7882 51.2659 64.9253 59.094C64.9403 59.0928 64.9564 59.0917 64.9713 59.0905M43.4322 58.9965L52.6412 83.6625M43.4322 58.9965C35.9348 58.2256 28.1247 56.5393 19.8825 53.5372L28.8627 79.3481C37.1878 81.9876 45.0806 83.3103 52.6619 83.7176M64.9713 59.0905L64.9506 59.0378M85.3218 56.3076L85.2999 56.2572C78.6497 57.4169 71.9249 58.454 64.9965 59.0333L55.6024 35.6062C62.4342 35.3848 69.0636 34.708 75.6172 33.9084C78.8371 41.3775 82.057 48.8466 85.2781 56.3145C85.293 56.3122 85.3079 56.3099 85.3229 56.3065M85.3218 56.3076L85.3229 56.3065M85.3218 56.3076L95.0045 78.7619M85.3218 56.3076C91.9777 55.1834 98.5564 53.9456 105.194 52.9006M85.3229 56.3065L85.301 56.256M85.3229 56.3065C85.3378 56.3042 85.3528 56.3019 85.3677 56.2985M85.3229 56.3065C85.3378 56.303 85.3528 56.3008 85.3677 56.2985M85.3677 56.2985L75.6632 33.7972C69.0522 34.6036 62.3652 35.2862 55.4702 35.5041L64.9471 59.1457C71.9249 58.5652 78.6957 57.519 85.3896 56.3489L85.3677 56.2985ZM105.194 52.9006L105.172 52.8524C98.5495 53.894 91.9856 55.1272 85.3447 56.2491M105.194 52.9006C105.179 52.9029 105.164 52.9052 105.149 52.9075C101.846 45.7975 98.5449 38.6886 95.2423 31.5786C88.7163 32.2623 82.2489 33.1352 75.7045 33.8981L85.3447 56.2491M105.194 52.9006C105.209 52.8983 105.224 52.896 105.239 52.8937M105.194 52.9006C111.823 51.8945 118.514 51.072 125.41 50.7084M105.194 52.9006L115.124 74.2754M85.3447 56.2491L95.0493 78.7504M85.3447 56.2491C78.6508 57.4169 71.8813 58.4608 64.9035 59.0401L74.3804 82.6817C81.4409 81.7387 88.2934 80.3323 95.0711 78.8009L95.0493 78.7504M105.239 52.8937L95.286 31.4742C88.7013 32.1602 82.1765 33.0412 75.5735 33.8086L85.2987 56.365M105.239 52.8937L105.261 52.9419M85.2987 56.365C91.9845 55.235 98.5921 53.9904 105.261 52.9419M85.2987 56.365C78.6623 57.5224 71.9525 58.5572 65.038 59.1376L74.4321 82.5647C81.4432 81.6263 88.2509 80.2302 94.9826 78.7114L95.0045 78.7619M85.2987 56.365C88.5186 63.8341 91.7386 71.3031 94.9596 78.771C94.9746 78.7676 94.9895 78.7642 95.0045 78.7607M105.261 52.9419L115.147 74.2179C121.843 72.8574 128.601 71.6792 135.564 70.9577L135.587 71.0024M105.261 52.9419C111.86 51.9404 118.522 51.1212 125.387 50.7564C128.771 57.5074 132.156 64.2572 135.541 71.0082C135.557 71.007 135.572 71.0047 135.588 71.0036M125.41 50.7084L125.387 50.6635C118.506 51.026 111.83 51.8451 105.216 52.8466M125.41 50.7084L125.41 50.7106C125.425 50.7094 125.441 50.7083 125.456 50.7083L125.479 50.753M125.41 50.7084L135.587 71.0024M125.41 50.7084C132.303 50.3631 139.407 50.4467 146.876 51.2061M105.216 52.8466L95.3297 31.5704C101.848 30.9269 108.427 30.4669 115.21 30.46C118.594 37.2109 121.979 43.9608 125.364 50.7117C125.379 50.7117 125.395 50.7106 125.41 50.7094M105.216 52.8466L115.169 74.2662C115.154 74.2697 115.139 74.2719 115.124 74.2754M105.216 52.8466C98.5485 53.8939 91.9409 55.1376 85.2551 56.2652L94.9803 78.8216M125.41 50.7094L125.387 50.6647M125.479 50.753L135.611 70.9533C142.572 70.2524 149.743 69.9794 157.277 70.3786L157.3 70.421M125.479 50.753C132.342 50.4112 139.415 50.4928 146.849 51.2453C150.316 57.6372 153.782 64.028 157.249 70.4199C157.266 70.4199 157.282 70.421 157.3 70.4222M146.876 51.2061L146.853 51.1637C139.401 50.4054 132.312 50.3194 125.434 50.6612M146.876 51.2061L146.878 51.2073C146.894 51.2084 146.91 51.2107 146.927 51.2119L146.95 51.2543C139.447 50.4903 132.311 50.4066 125.388 50.7565L115.167 30.3694C122.005 30.3831 129.059 30.8294 136.479 31.957L146.926 51.2119C146.91 51.2107 146.894 51.2084 146.877 51.2073M146.876 51.2061C154.349 51.9426 162.198 53.3054 170.579 55.5079M146.876 51.2061L157.3 70.421M125.434 50.6612L135.635 70.999M125.434 50.6612C118.506 51.0237 111.788 51.8497 105.13 52.8603L115.103 74.3326C121.844 72.9595 128.647 71.7699 135.658 71.0437L135.635 70.999M146.877 51.2073L146.854 51.1648M170.579 55.5079L170.555 55.4679C162.192 53.27 154.36 51.9072 146.902 51.1684L136.524 32.042C143.883 33.1364 151.616 34.8502 159.876 37.3969L170.522 55.4931C170.54 55.4977 170.56 55.5023 170.578 55.5081M170.579 55.5079L170.578 55.5081M170.578 55.5081L170.554 55.4679M170.578 55.5081C170.597 55.5126 170.616 55.5172 170.634 55.523M170.578 55.5081C170.597 55.5138 170.616 55.5184 170.634 55.523M170.634 55.523L159.939 37.3499C151.6 34.7711 143.801 33.0412 136.378 31.9411L146.848 51.2441C154.353 51.9806 162.237 53.348 170.659 55.5631L170.634 55.523ZM52.5906 83.6602L52.5699 83.6051C45.0392 83.1944 37.1981 81.8798 28.934 79.2689L20.0319 53.6921C28.1972 56.6552 35.9382 58.3254 43.3724 59.0963C46.4279 67.2835 49.4845 75.4707 52.54 83.6579C52.5573 83.6579 52.5734 83.6602 52.5906 83.6602ZM52.5906 83.6602C52.6078 83.6602 52.6239 83.6625 52.6412 83.6625M52.5906 83.6602C60.1432 84.0491 67.3739 83.581 74.4069 82.6232M52.6412 83.6625L52.6619 83.7176M52.6619 83.7176C55.7116 91.8852 58.7602 100.052 61.81 108.219C69.4269 108.246 76.7231 107.42 83.8216 106.105L83.8423 106.158M52.6619 83.7176C60.1799 84.1007 67.3796 83.6349 74.3815 82.6816C77.5198 90.5097 80.658 98.3379 83.7952 106.166C83.8112 106.163 83.8273 106.16 83.8423 106.157M74.4069 82.6232L74.386 82.5703C67.3692 83.5259 60.1558 83.9928 52.6205 83.6073C49.5707 75.4396 46.5221 67.2731 43.4723 59.1054C50.9088 59.8465 58.0256 59.7386 64.9459 59.1444C68.0842 66.9726 71.2225 74.8007 74.3596 82.6288C74.3757 82.6265 74.3906 82.6242 74.4067 82.6219M74.4069 82.6232L74.4067 82.6208C74.4228 82.6185 74.4378 82.6162 74.4539 82.6139L74.4746 82.6667C67.4117 83.6314 60.1477 84.1029 52.5595 83.7094L43.3309 58.9838C50.8363 59.7409 58.0164 59.6331 64.9965 59.0309L74.4539 82.6151C74.4378 82.6173 74.4228 82.6196 74.4067 82.6219M74.4067 82.6219L74.386 82.5692M95.0045 78.7619V78.7607M95.0045 78.7619C101.743 77.2775 108.403 75.6795 115.124 74.2754M95.0045 78.7619C88.2578 80.2853 81.4353 81.6847 74.4069 82.6242L83.8423 106.158M95.0045 78.7619L104.687 101.216M95.0045 78.7607L94.9826 78.7102M95.0045 78.7607C95.0194 78.7573 95.0343 78.7538 95.0493 78.7504M115.124 74.2754L115.102 74.2272C108.397 75.6279 101.751 77.2201 95.0285 78.7011M115.124 74.2754C115.109 74.2788 115.094 74.2811 115.079 74.2846C111.776 67.1746 108.475 60.0657 105.172 52.9557C98.5634 53.9973 92.0144 55.2293 85.3884 56.3501L95.0285 78.7011M115.124 74.2754L115.124 74.2743M95.0285 78.7011L104.733 101.202M95.0285 78.7011C88.252 80.2303 81.3996 81.6366 74.3391 82.5772L83.8159 106.219C90.9592 104.914 97.8945 103.146 104.755 101.253L104.733 101.202M94.9803 78.8216C101.749 77.3303 108.439 75.7243 115.191 74.3133L115.169 74.2651C115.154 74.2685 115.139 74.2708 115.124 74.2743M94.9803 78.8216C88.2634 80.3369 81.4709 81.7306 74.4747 82.669L83.8688 106.096C90.9615 104.799 97.8508 103.043 104.665 101.166L104.687 101.216M94.9803 78.8216C98.2002 86.2906 101.42 93.7596 104.641 101.228C104.656 101.223 104.671 101.22 104.687 101.215M115.124 74.2743L125.054 95.649M115.124 74.2743C121.835 72.908 128.608 71.7251 135.587 71.0024M135.587 71.0024L135.588 71.0036M135.587 71.0024C142.561 70.2981 149.749 70.0218 157.3 70.421M135.587 71.0024L145.764 91.2968M135.588 71.0036L135.565 70.9588M135.588 71.0036C135.604 71.0024 135.619 71.0001 135.635 70.999M157.3 70.421L157.301 70.4222C157.318 70.4233 157.334 70.4245 157.351 70.4245L157.374 70.4669C149.787 70.0631 142.569 70.3419 135.564 71.0531L125.342 50.666C132.264 50.3184 139.4 50.4033 146.903 51.1696L157.35 70.4245C157.333 70.4245 157.317 70.4222 157.3 70.4222M157.3 70.4222L157.277 70.3797M181.248 73.6422C181.23 73.6387 181.21 73.6341 181.192 73.6307L170.546 55.5345C162.204 53.3457 154.39 51.9909 146.948 51.2544L157.326 70.3808C164.866 70.7617 172.781 71.7643 181.225 73.6032L181.25 73.6433H181.247C181.266 73.6479 181.285 73.6513 181.304 73.6559L181.328 73.6961C172.825 71.8423 164.858 70.8363 157.27 70.4611L146.8 51.1581C154.305 51.8957 162.188 53.2642 170.609 55.4817L181.305 73.6548C181.286 73.6502 181.267 73.6468 181.248 73.6422ZM181.248 73.6422L181.224 73.602M181.248 73.6422C172.784 71.7999 164.855 70.7973 157.299 70.4198L167.723 89.6346C175.361 89.6529 183.375 90.2942 191.921 91.7774M181.248 73.6422L191.921 91.7774M61.779 108.274C54.1483 108.224 46.2072 107.265 37.8396 105.003M61.779 108.274V108.276L52.5906 83.6612C45.0427 83.2494 37.1844 81.9313 28.8984 79.309L37.8396 105.003M61.779 108.274L61.7583 108.219C54.1448 108.168 46.2233 107.213 37.8753 104.96L28.9731 79.3835C37.22 81.9875 45.0438 83.2999 52.5596 83.7128C55.6151 91.9 58.6718 100.087 61.7273 108.274C61.7445 108.274 61.7618 108.274 61.7778 108.274M61.779 108.274L61.7767 108.274C61.7928 108.274 61.81 108.274 61.8273 108.274L61.848 108.329C54.1851 108.282 46.2083 107.322 37.8017 105.044L28.8214 79.2332C37.1464 81.8751 45.0393 83.1989 52.6194 83.6085L61.8284 108.274C61.8123 108.274 61.7951 108.274 61.7778 108.274M37.8396 105.003L46.8199 130.814L55.8002 156.624L64.7805 182.435L73.7607 208.246M61.7778 108.274L61.7572 108.219M83.8423 106.158V106.156C83.8572 106.152 83.8733 106.15 83.8894 106.146L83.9101 106.199C76.7634 107.527 69.4177 108.359 61.7468 108.327L52.5182 83.6016C60.1064 83.9974 67.3692 83.527 74.4321 82.5634L83.8894 106.148C83.8745 106.151 83.8584 106.153 83.8423 106.157M83.8423 106.158C90.9522 104.858 97.8577 103.098 104.687 101.216M83.8423 106.157L83.8216 106.104M104.687 101.216L104.687 101.215M104.687 101.215L104.665 101.164M104.687 101.215C104.702 101.21 104.718 101.207 104.733 101.202M104.687 101.215C104.703 101.21 104.718 101.207 104.733 101.202M125.054 95.649L125.032 95.6008C118.245 97.3605 111.517 99.313 104.712 101.152L95.0723 78.8008C101.78 77.3221 108.412 75.731 115.102 74.3315C118.405 81.4415 121.706 88.5504 125.009 95.6604C125.024 95.657 125.039 95.6524 125.055 95.649M125.054 95.649C125.07 95.6455 125.085 95.6409 125.1 95.6375L125.122 95.6857C118.289 97.4569 111.515 99.4254 104.664 101.278L94.9389 78.7216C101.707 77.2315 108.398 75.6267 115.148 74.218L125.101 95.6375C125.085 95.6409 125.07 95.6455 125.055 95.649M125.054 95.649C131.848 93.9225 138.703 92.3809 145.764 91.2968M125.055 95.649L125.033 95.6008M145.764 91.2968L145.741 91.252C138.695 92.3326 131.856 93.8697 125.077 95.5905L115.191 74.3143C121.872 72.955 128.615 71.7768 135.563 71.0541C138.947 77.8051 142.331 84.5549 145.717 91.3059C145.733 91.3036 145.748 91.3013 145.764 91.299M145.764 91.2968L145.764 91.3001C145.78 91.2978 145.795 91.2956 145.811 91.2933L145.834 91.338C138.74 92.4243 131.854 93.9753 125.031 95.7109L115.057 74.2386C121.798 72.8666 128.6 71.6782 135.611 70.9543L145.811 91.2921C145.795 91.2944 145.78 91.2967 145.764 91.299M145.764 91.299L145.741 91.2542M167.723 89.6369C167.707 89.6369 167.689 89.6369 167.672 89.6369C164.205 83.245 160.739 76.8542 157.272 70.4623C149.756 70.0677 142.6 70.343 135.656 71.0439L145.788 91.2452C152.83 90.1852 160.084 89.5531 167.7 89.5933L167.723 89.6357L167.724 89.6369C167.74 89.6369 167.757 89.6369 167.774 89.6369L167.797 89.6793C160.128 89.638 152.827 90.2781 145.739 91.3507L135.517 70.9636C142.521 70.2547 149.74 69.9771 157.326 70.382L167.773 89.6369C167.757 89.6369 167.74 89.6369 167.723 89.6369ZM167.723 89.6369L167.7 89.5944M191.921 91.7774L191.897 91.7372C183.369 90.2573 175.373 89.6138 167.75 89.5931L157.372 70.4668C164.896 70.8442 172.792 71.8422 181.216 73.6719L191.862 91.7681C191.882 91.7716 191.9 91.775 191.92 91.7773M191.921 91.7774L191.918 91.7773C191.938 91.7796 191.956 91.7831 191.976 91.7865L192 91.8266C183.414 90.3342 175.365 89.6907 167.694 89.6769L157.224 70.3738C164.812 70.7513 172.777 71.7584 181.282 73.6134L191.977 91.7865C191.957 91.7842 191.939 91.7808 191.92 91.7773M191.92 91.7773L191.895 91.7372" stroke="#DBDBDB" stroke-width="2"/>
</g>
</svg>
