<svg width="572" height="59" viewBox="0 0 572 59" fill="none" xmlns="http://www.w3.org/2000/svg">
<path d="M9.368 43.6128V1.11679H0.472V43.6128H9.368ZM41.1455 43.6128V21.7888C41.1455 14.9408 36.7295 11.2928 30.7135 11.2928C25.6575 11.2928 22.4575 13.2128 20.5375 16.7328V12.1248H12.6015V43.6128H20.9215V25.5648C20.9215 20.7648 23.0335 18.3328 27.3855 18.3328C31.3535 18.3328 32.7615 19.6768 32.7615 24.5408V43.6128H41.1455ZM54.495 43.6128V18.0128H59.871V12.1248H54.495C54.495 8.47679 55.455 7.32479 59.679 7.32479V0.60479C50.719 0.60479 46.303 4.44479 46.303 12.1248H41.631V18.0128H46.303V43.6128H54.495ZM75.3395 37.4688C70.2835 37.4688 67.7235 34.2688 67.7235 27.8688C67.7235 21.4688 70.2835 18.3328 75.3395 18.3328C80.3955 18.3328 82.9555 21.4688 82.9555 27.8688C82.9555 34.2688 80.3955 37.4688 75.3395 37.4688ZM75.3395 44.4448C85.1315 44.4448 91.3395 37.8528 91.3395 27.8688C91.3395 17.8208 85.1955 11.2928 75.3395 11.2928C65.3555 11.2928 59.1475 17.8848 59.1475 27.8688C59.1475 37.6608 65.1635 44.4448 75.3395 44.4448ZM102.672 43.6128V27.2288C102.672 22.1728 105.168 19.6128 110.288 19.6128C111.056 19.6128 111.824 19.6768 112.592 19.8048V11.2928H111.503C108.112 11.2928 104.912 11.6768 102.16 15.9008V12.1248H94.3515V43.6128H102.672ZM159.97 43.6128V21.7888C159.97 15.9008 155.554 11.2928 149.218 11.2928C145.25 11.2928 142.434 12.8288 140.706 16.2848C138.274 12.6368 136.226 11.2928 131.938 11.2928C127.778 11.2928 124.834 12.5728 122.722 16.7328V12.1248H114.914V43.6128H123.234V24.4768C123.234 20.3808 124.962 18.3328 128.29 18.3328C131.938 18.3328 133.282 19.6128 133.282 24.6688V43.6128H141.602V24.7968C141.602 20.9568 143.842 18.0768 146.914 18.0768C149.858 18.0768 151.842 20.7648 151.842 24.5408V43.6128H159.97ZM182.236 31.6448C182.172 35.3568 178.972 38.4928 174.684 38.4928C172.06 38.4928 170.652 37.3408 170.652 34.9728C170.652 32.2848 172.188 30.9408 176.924 30.0448C179.996 29.4688 181.468 29.0208 182.3 28.1888L182.236 31.6448ZM190.62 43.6128V23.7088C190.62 15.7728 187.164 11.2928 177.18 11.2928C167.068 11.2928 163.484 15.8368 163.356 22.3648H171.1C171.484 19.5488 173.02 17.6928 176.796 17.6928C180.06 17.6928 182.108 18.9088 182.108 20.9568C182.108 23.1328 180.956 23.9648 176.796 24.5408C168.412 25.6928 162.332 26.7168 162.332 35.8048C162.332 40.9248 165.66 44.4448 172.828 44.4448C177.052 44.4448 180.38 42.9728 182.364 40.7968C182.428 41.7568 182.62 42.8448 182.876 43.6128H190.62ZM212.145 31.0688C212.145 34.9728 210.609 37.2128 207.281 37.2128C203.889 37.2128 202.481 34.9088 202.481 30.9408V18.0128H219.889V12.1248H202.481V3.61279H194.289V31.7728C194.289 38.5568 197.937 44.4448 207.153 44.4448C216.049 44.4448 219.889 38.4928 219.889 31.8368V22.8768H212.145V31.0688ZM231.801 43.6128V12.1248H223.481V43.6128H231.801ZM231.801 8.34879V0.60479H223.481V8.34879H231.801ZM251.09 37.4688C246.034 37.4688 243.474 34.2688 243.474 27.8688C243.474 21.4688 246.034 18.3328 251.09 18.3328C256.146 18.3328 258.706 21.4688 258.706 27.8688C258.706 34.2688 256.146 37.4688 251.09 37.4688ZM251.09 44.4448C260.882 44.4448 267.09 37.8528 267.09 27.8688C267.09 17.8208 260.946 11.2928 251.09 11.2928C241.106 11.2928 234.898 17.8848 234.898 27.8688C234.898 37.6608 240.914 44.4448 251.09 44.4448ZM298.646 43.6128V21.7888C298.646 14.9408 294.23 11.2928 288.214 11.2928C283.158 11.2928 279.958 13.2128 278.038 16.7328V12.1248H270.102V43.6128H278.422V25.5648C278.422 20.7648 280.534 18.3328 284.885 18.3328C288.854 18.3328 290.262 19.6768 290.262 24.5408V43.6128H298.646ZM332.831 37.3408C328.735 37.3408 325.727 33.7568 325.727 28.1248C325.727 21.6608 328.159 18.5248 332.831 18.5248C337.567 18.5248 339.935 21.7888 339.935 28.6368C339.935 33.9488 336.863 37.3408 332.831 37.3408ZM339.679 44.5728C339.679 48.7328 336.159 51.3568 331.743 51.3568C327.583 51.3568 324.831 49.1168 324.831 45.3408H317.087C317.087 53.4688 323.551 58.5248 332.319 58.5248C341.087 58.5248 347.999 53.4048 347.999 43.9328V12.1248H339.679V16.0288C337.695 12.8288 334.815 11.2928 330.847 11.2928C323.231 11.2928 317.087 17.8848 317.087 27.6768C317.087 35.9328 320.671 43.8688 331.039 43.8688C335.135 43.8688 338.527 42.2048 339.679 39.3888V44.5728ZM370.736 31.6448C370.672 35.3568 367.472 38.4928 363.184 38.4928C360.56 38.4928 359.152 37.3408 359.152 34.9728C359.152 32.2848 360.688 30.9408 365.424 30.0448C368.496 29.4688 369.968 29.0208 370.8 28.1888L370.736 31.6448ZM379.12 43.6128V23.7088C379.12 15.7728 375.664 11.2928 365.68 11.2928C355.568 11.2928 351.984 15.8368 351.856 22.3648H359.6C359.984 19.5488 361.52 17.6928 365.296 17.6928C368.56 17.6928 370.608 18.9088 370.608 20.9568C370.608 23.1328 369.456 23.9648 365.296 24.5408C356.912 25.6928 350.832 26.7168 350.832 35.8048C350.832 40.9248 354.16 44.4448 361.328 44.4448C365.552 44.4448 368.88 42.9728 370.864 40.7968C370.928 41.7568 371.12 42.8448 371.376 43.6128H379.12ZM400.645 31.0688C400.645 34.9728 399.109 37.2128 395.781 37.2128C392.389 37.2128 390.981 34.9088 390.981 30.9408V18.0128H408.389V12.1248H390.981V3.61279H382.789V31.7728C382.789 38.5568 386.437 44.4448 395.653 44.4448C404.549 44.4448 408.389 38.4928 408.389 31.8368V22.8768H400.645V31.0688ZM440.333 43.6128V21.3408C440.333 15.0688 435.853 11.2928 429.389 11.2928C425.165 11.2928 421.325 13.4048 420.109 16.2208V0.60479H411.789V43.6128H420.109V25.5648C420.109 21.3408 422.413 17.8848 426.573 17.8848C430.349 17.8848 431.949 19.3568 431.949 24.0928V43.6128H440.333ZM451.849 24.7968C452.169 20.4448 454.921 17.8848 458.249 17.8848C461.513 17.8848 464.585 20.1248 464.713 24.7968H451.849ZM473.289 30.0448C473.289 17.5648 468.169 11.2928 458.505 11.2928C448.841 11.2928 443.273 17.5648 443.273 27.2928C443.273 38.6848 448.521 44.4448 459.017 44.4448C465.737 44.4448 470.921 40.7968 472.841 34.3328H464.265C463.689 36.5088 461.321 37.8528 458.633 37.8528C454.537 37.8528 451.849 34.7808 451.593 30.0448H473.289ZM484.484 43.6128V27.2288C484.484 22.1728 486.98 19.6128 492.1 19.6128C492.868 19.6128 493.636 19.6768 494.404 19.8048V11.2928H493.316C489.924 11.2928 486.724 11.6768 483.972 15.9008V12.1248H476.164V43.6128H484.484ZM505.239 43.6128V12.1248H496.919V43.6128H505.239ZM505.239 8.34879V0.60479H496.919V8.34879H505.239ZM537.583 43.6128V21.7888C537.583 14.9408 533.167 11.2928 527.151 11.2928C522.095 11.2928 518.895 13.2128 516.975 16.7328V12.1248H509.039V43.6128H517.359V25.5648C517.359 20.7648 519.471 18.3328 523.823 18.3328C527.791 18.3328 529.199 19.6768 529.199 24.5408V43.6128H537.583ZM556.331 37.3408C552.235 37.3408 549.227 33.7568 549.227 28.1248C549.227 21.6608 551.659 18.5248 556.331 18.5248C561.067 18.5248 563.435 21.7888 563.435 28.6368C563.435 33.9488 560.363 37.3408 556.331 37.3408ZM563.179 44.5728C563.179 48.7328 559.659 51.3568 555.243 51.3568C551.083 51.3568 548.331 49.1168 548.331 45.3408H540.587C540.587 53.4688 547.051 58.5248 555.819 58.5248C564.587 58.5248 571.499 53.4048 571.499 43.9328V12.1248H563.179V16.0288C561.195 12.8288 558.315 11.2928 554.347 11.2928C546.731 11.2928 540.587 17.8848 540.587 27.6768C540.587 35.9328 544.171 43.8688 554.539 43.8688C558.635 43.8688 562.027 42.2048 563.179 39.3888V44.5728Z" fill="#1A2834"/>
<path d="M9.368 43.6128V1.11679H0.472V43.6128H9.368ZM41.1455 43.6128V21.7888C41.1455 14.9408 36.7295 11.2928 30.7135 11.2928C25.6575 11.2928 22.4575 13.2128 20.5375 16.7328V12.1248H12.6015V43.6128H20.9215V25.5648C20.9215 20.7648 23.0335 18.3328 27.3855 18.3328C31.3535 18.3328 32.7615 19.6768 32.7615 24.5408V43.6128H41.1455ZM54.495 43.6128V18.0128H59.871V12.1248H54.495C54.495 8.47679 55.455 7.32479 59.679 7.32479V0.60479C50.719 0.60479 46.303 4.44479 46.303 12.1248H41.631V18.0128H46.303V43.6128H54.495ZM75.3395 37.4688C70.2835 37.4688 67.7235 34.2688 67.7235 27.8688C67.7235 21.4688 70.2835 18.3328 75.3395 18.3328C80.3955 18.3328 82.9555 21.4688 82.9555 27.8688C82.9555 34.2688 80.3955 37.4688 75.3395 37.4688ZM75.3395 44.4448C85.1315 44.4448 91.3395 37.8528 91.3395 27.8688C91.3395 17.8208 85.1955 11.2928 75.3395 11.2928C65.3555 11.2928 59.1475 17.8848 59.1475 27.8688C59.1475 37.6608 65.1635 44.4448 75.3395 44.4448ZM102.672 43.6128V27.2288C102.672 22.1728 105.168 19.6128 110.288 19.6128C111.056 19.6128 111.824 19.6768 112.592 19.8048V11.2928H111.503C108.112 11.2928 104.912 11.6768 102.16 15.9008V12.1248H94.3515V43.6128H102.672ZM159.97 43.6128V21.7888C159.97 15.9008 155.554 11.2928 149.218 11.2928C145.25 11.2928 142.434 12.8288 140.706 16.2848C138.274 12.6368 136.226 11.2928 131.938 11.2928C127.778 11.2928 124.834 12.5728 122.722 16.7328V12.1248H114.914V43.6128H123.234V24.4768C123.234 20.3808 124.962 18.3328 128.29 18.3328C131.938 18.3328 133.282 19.6128 133.282 24.6688V43.6128H141.602V24.7968C141.602 20.9568 143.842 18.0768 146.914 18.0768C149.858 18.0768 151.842 20.7648 151.842 24.5408V43.6128H159.97ZM182.236 31.6448C182.172 35.3568 178.972 38.4928 174.684 38.4928C172.06 38.4928 170.652 37.3408 170.652 34.9728C170.652 32.2848 172.188 30.9408 176.924 30.0448C179.996 29.4688 181.468 29.0208 182.3 28.1888L182.236 31.6448ZM190.62 43.6128V23.7088C190.62 15.7728 187.164 11.2928 177.18 11.2928C167.068 11.2928 163.484 15.8368 163.356 22.3648H171.1C171.484 19.5488 173.02 17.6928 176.796 17.6928C180.06 17.6928 182.108 18.9088 182.108 20.9568C182.108 23.1328 180.956 23.9648 176.796 24.5408C168.412 25.6928 162.332 26.7168 162.332 35.8048C162.332 40.9248 165.66 44.4448 172.828 44.4448C177.052 44.4448 180.38 42.9728 182.364 40.7968C182.428 41.7568 182.62 42.8448 182.876 43.6128H190.62ZM212.145 31.0688C212.145 34.9728 210.609 37.2128 207.281 37.2128C203.889 37.2128 202.481 34.9088 202.481 30.9408V18.0128H219.889V12.1248H202.481V3.61279H194.289V31.7728C194.289 38.5568 197.937 44.4448 207.153 44.4448C216.049 44.4448 219.889 38.4928 219.889 31.8368V22.8768H212.145V31.0688ZM231.801 43.6128V12.1248H223.481V43.6128H231.801ZM231.801 8.34879V0.60479H223.481V8.34879H231.801ZM251.09 37.4688C246.034 37.4688 243.474 34.2688 243.474 27.8688C243.474 21.4688 246.034 18.3328 251.09 18.3328C256.146 18.3328 258.706 21.4688 258.706 27.8688C258.706 34.2688 256.146 37.4688 251.09 37.4688ZM251.09 44.4448C260.882 44.4448 267.09 37.8528 267.09 27.8688C267.09 17.8208 260.946 11.2928 251.09 11.2928C241.106 11.2928 234.898 17.8848 234.898 27.8688C234.898 37.6608 240.914 44.4448 251.09 44.4448ZM298.646 43.6128V21.7888C298.646 14.9408 294.23 11.2928 288.214 11.2928C283.158 11.2928 279.958 13.2128 278.038 16.7328V12.1248H270.102V43.6128H278.422V25.5648C278.422 20.7648 280.534 18.3328 284.885 18.3328C288.854 18.3328 290.262 19.6768 290.262 24.5408V43.6128H298.646ZM332.831 37.3408C328.735 37.3408 325.727 33.7568 325.727 28.1248C325.727 21.6608 328.159 18.5248 332.831 18.5248C337.567 18.5248 339.935 21.7888 339.935 28.6368C339.935 33.9488 336.863 37.3408 332.831 37.3408ZM339.679 44.5728C339.679 48.7328 336.159 51.3568 331.743 51.3568C327.583 51.3568 324.831 49.1168 324.831 45.3408H317.087C317.087 53.4688 323.551 58.5248 332.319 58.5248C341.087 58.5248 347.999 53.4048 347.999 43.9328V12.1248H339.679V16.0288C337.695 12.8288 334.815 11.2928 330.847 11.2928C323.231 11.2928 317.087 17.8848 317.087 27.6768C317.087 35.9328 320.671 43.8688 331.039 43.8688C335.135 43.8688 338.527 42.2048 339.679 39.3888V44.5728ZM370.736 31.6448C370.672 35.3568 367.472 38.4928 363.184 38.4928C360.56 38.4928 359.152 37.3408 359.152 34.9728C359.152 32.2848 360.688 30.9408 365.424 30.0448C368.496 29.4688 369.968 29.0208 370.8 28.1888L370.736 31.6448ZM379.12 43.6128V23.7088C379.12 15.7728 375.664 11.2928 365.68 11.2928C355.568 11.2928 351.984 15.8368 351.856 22.3648H359.6C359.984 19.5488 361.52 17.6928 365.296 17.6928C368.56 17.6928 370.608 18.9088 370.608 20.9568C370.608 23.1328 369.456 23.9648 365.296 24.5408C356.912 25.6928 350.832 26.7168 350.832 35.8048C350.832 40.9248 354.16 44.4448 361.328 44.4448C365.552 44.4448 368.88 42.9728 370.864 40.7968C370.928 41.7568 371.12 42.8448 371.376 43.6128H379.12ZM400.645 31.0688C400.645 34.9728 399.109 37.2128 395.781 37.2128C392.389 37.2128 390.981 34.9088 390.981 30.9408V18.0128H408.389V12.1248H390.981V3.61279H382.789V31.7728C382.789 38.5568 386.437 44.4448 395.653 44.4448C404.549 44.4448 408.389 38.4928 408.389 31.8368V22.8768H400.645V31.0688ZM440.333 43.6128V21.3408C440.333 15.0688 435.853 11.2928 429.389 11.2928C425.165 11.2928 421.325 13.4048 420.109 16.2208V0.60479H411.789V43.6128H420.109V25.5648C420.109 21.3408 422.413 17.8848 426.573 17.8848C430.349 17.8848 431.949 19.3568 431.949 24.0928V43.6128H440.333ZM451.849 24.7968C452.169 20.4448 454.921 17.8848 458.249 17.8848C461.513 17.8848 464.585 20.1248 464.713 24.7968H451.849ZM473.289 30.0448C473.289 17.5648 468.169 11.2928 458.505 11.2928C448.841 11.2928 443.273 17.5648 443.273 27.2928C443.273 38.6848 448.521 44.4448 459.017 44.4448C465.737 44.4448 470.921 40.7968 472.841 34.3328H464.265C463.689 36.5088 461.321 37.8528 458.633 37.8528C454.537 37.8528 451.849 34.7808 451.593 30.0448H473.289ZM484.484 43.6128V27.2288C484.484 22.1728 486.98 19.6128 492.1 19.6128C492.868 19.6128 493.636 19.6768 494.404 19.8048V11.2928H493.316C489.924 11.2928 486.724 11.6768 483.972 15.9008V12.1248H476.164V43.6128H484.484ZM505.239 43.6128V12.1248H496.919V43.6128H505.239ZM505.239 8.34879V0.60479H496.919V8.34879H505.239ZM537.583 43.6128V21.7888C537.583 14.9408 533.167 11.2928 527.151 11.2928C522.095 11.2928 518.895 13.2128 516.975 16.7328V12.1248H509.039V43.6128H517.359V25.5648C517.359 20.7648 519.471 18.3328 523.823 18.3328C527.791 18.3328 529.199 19.6768 529.199 24.5408V43.6128H537.583ZM556.331 37.3408C552.235 37.3408 549.227 33.7568 549.227 28.1248C549.227 21.6608 551.659 18.5248 556.331 18.5248C561.067 18.5248 563.435 21.7888 563.435 28.6368C563.435 33.9488 560.363 37.3408 556.331 37.3408ZM563.179 44.5728C563.179 48.7328 559.659 51.3568 555.243 51.3568C551.083 51.3568 548.331 49.1168 548.331 45.3408H540.587C540.587 53.4688 547.051 58.5248 555.819 58.5248C564.587 58.5248 571.499 53.4048 571.499 43.9328V12.1248H563.179V16.0288C561.195 12.8288 558.315 11.2928 554.347 11.2928C546.731 11.2928 540.587 17.8848 540.587 27.6768C540.587 35.9328 544.171 43.8688 554.539 43.8688C558.635 43.8688 562.027 42.2048 563.179 39.3888V44.5728Z" fill="#303030"/>
</svg>
