<svg width="163" height="139" viewBox="0 0 163 139" fill="none" xmlns="http://www.w3.org/2000/svg">
<path d="M0.588867 106.156L35.5897 71.1548M105.632 1.11279L78.9858 27.7588M78.9858 27.7588C96.8769 31.3277 107.454 47.7985 107.454 81.6975C107.454 120.405 93.6636 138.113 70.9407 138.113C48.3746 138.113 35.211 121.188 35.211 82.0109C35.211 78.1714 35.3384 74.5549 35.5897 71.1548M78.9858 27.7588L35.5897 71.1548M71.7243 119.778C62.9486 119.778 58.7174 110.219 58.7174 82.3243C58.7174 54.9002 62.9486 45.1842 71.7243 45.1842C80.3433 45.1842 84.4177 55.0569 84.4177 82.7944C84.4177 109.905 80.3433 119.778 71.7243 119.778ZM161.701 134.508V30.4535H143.209C141.799 41.1098 135.531 48.4751 117.509 48.4751V64.146H138.978V134.508H161.701Z" stroke="#1A2834"/>
<path d="M0.588867 106.156L35.5897 71.1548M105.632 1.11279L78.9858 27.7588M78.9858 27.7588C96.8769 31.3277 107.454 47.7985 107.454 81.6975C107.454 120.405 93.6636 138.113 70.9407 138.113C48.3746 138.113 35.211 121.188 35.211 82.0109C35.211 78.1714 35.3384 74.5549 35.5897 71.1548M78.9858 27.7588L35.5897 71.1548M71.7243 119.778C62.9486 119.778 58.7174 110.219 58.7174 82.3243C58.7174 54.9002 62.9486 45.1842 71.7243 45.1842C80.3433 45.1842 84.4177 55.0569 84.4177 82.7944C84.4177 109.905 80.3433 119.778 71.7243 119.778ZM161.701 134.508V30.4535H143.209C141.799 41.1098 135.531 48.4751 117.509 48.4751V64.146H138.978V134.508H161.701Z" stroke="#303030"/>
</svg>
