<svg width="192" height="139" viewBox="0 0 192 139" fill="none" xmlns="http://www.w3.org/2000/svg">
<path d="M0.588867 105.758L35.5897 70.7577M105.631 0.71582L78.9854 27.3619M78.9854 27.3619C96.8765 30.9308 107.454 47.4015 107.454 81.3006C107.454 120.008 93.6633 137.716 70.9405 137.716C48.3744 137.716 35.2109 120.791 35.2109 81.614C35.2109 77.7744 35.3383 74.1579 35.5897 70.7577M78.9854 27.3619L35.5897 70.7577M71.7241 119.381C62.9484 119.381 58.7172 109.822 58.7172 81.9274C58.7172 54.5033 62.9484 44.7874 71.7241 44.7874C80.343 44.7874 84.4175 54.66 84.4175 82.3975C84.4175 109.508 80.343 119.381 71.7241 119.381ZM146.03 88.3525C161.701 88.3525 167.342 91.8001 167.342 103.553C167.342 113.426 161.701 119.067 154.492 119.067C145.403 119.067 140.702 114.68 140.702 103.71H118.919C118.919 124.866 131.142 137.716 153.395 137.716C176.745 137.716 190.535 124.709 190.535 103.867C190.535 89.2927 184.423 81.9274 175.178 78.1664C183.64 73.7785 187.244 65.3163 187.244 56.0704C187.244 38.3623 174.237 26.6091 154.492 26.6091C132.866 26.6091 120.643 39.9294 120.643 59.8314H141.799C141.799 49.9588 146.813 44.7874 153.709 44.7874C162.328 44.7874 166.089 49.9588 166.089 58.7345C166.089 66.0998 162.641 72.5249 146.03 72.5249V88.3525Z" stroke="#1A2834"/>
<path d="M0.588867 105.758L35.5897 70.7577M105.631 0.71582L78.9854 27.3619M78.9854 27.3619C96.8765 30.9308 107.454 47.4015 107.454 81.3006C107.454 120.008 93.6633 137.716 70.9405 137.716C48.3744 137.716 35.2109 120.791 35.2109 81.614C35.2109 77.7744 35.3383 74.1579 35.5897 70.7577M78.9854 27.3619L35.5897 70.7577M71.7241 119.381C62.9484 119.381 58.7172 109.822 58.7172 81.9274C58.7172 54.5033 62.9484 44.7874 71.7241 44.7874C80.343 44.7874 84.4175 54.66 84.4175 82.3975C84.4175 109.508 80.343 119.381 71.7241 119.381ZM146.03 88.3525C161.701 88.3525 167.342 91.8001 167.342 103.553C167.342 113.426 161.701 119.067 154.492 119.067C145.403 119.067 140.702 114.68 140.702 103.71H118.919C118.919 124.866 131.142 137.716 153.395 137.716C176.745 137.716 190.535 124.709 190.535 103.867C190.535 89.2927 184.423 81.9274 175.178 78.1664C183.64 73.7785 187.244 65.3163 187.244 56.0704C187.244 38.3623 174.237 26.6091 154.492 26.6091C132.866 26.6091 120.643 39.9294 120.643 59.8314H141.799C141.799 49.9588 146.813 44.7874 153.709 44.7874C162.328 44.7874 166.089 49.9588 166.089 58.7345C166.089 66.0998 162.641 72.5249 146.03 72.5249V88.3525Z" stroke="#303030"/>
</svg>
