<svg width="190" height="139" viewBox="0 0 190 139" fill="none" xmlns="http://www.w3.org/2000/svg">
<path d="M0.588867 106.06L35.5897 71.059M105.632 1.01709L78.9854 27.6632M78.9854 27.6632C96.8766 31.232 107.454 47.7028 107.454 81.6018C107.454 120.309 93.6633 138.017 70.9405 138.017C48.3744 138.017 35.2109 121.093 35.2109 81.9153C35.2109 78.0757 35.3383 74.4592 35.5897 71.059M78.9854 27.6632L35.5897 71.059M71.7241 119.682C62.9484 119.682 58.7172 110.123 58.7172 82.2287C58.7172 54.8046 62.9484 45.0886 71.7241 45.0886C80.3431 45.0886 84.4175 54.9613 84.4175 82.6988C84.4175 109.809 80.3431 119.682 71.7241 119.682ZM189.125 134.413V114.667H146.03C146.5 109.026 155.276 101.504 161.857 96.4892C182.073 81.2884 188.811 72.6694 188.811 57.7821C188.811 37.0965 174.394 26.9104 152.925 26.9104C131.456 26.9104 118.919 40.5441 118.919 62.6401H140.702C140.702 49.7899 146.5 46.3423 154.022 46.3423C161.074 46.3423 166.715 48.6929 166.715 58.5656C166.715 66.2444 162.954 71.5725 148.537 82.072C121.897 101.661 117.666 115.138 117.509 134.413H189.125Z" stroke="#1A2834"/>
<path d="M0.588867 106.06L35.5897 71.059M105.632 1.01709L78.9854 27.6632M78.9854 27.6632C96.8766 31.232 107.454 47.7028 107.454 81.6018C107.454 120.309 93.6633 138.017 70.9405 138.017C48.3744 138.017 35.2109 121.093 35.2109 81.9153C35.2109 78.0757 35.3383 74.4592 35.5897 71.059M78.9854 27.6632L35.5897 71.059M71.7241 119.682C62.9484 119.682 58.7172 110.123 58.7172 82.2287C58.7172 54.8046 62.9484 45.0886 71.7241 45.0886C80.3431 45.0886 84.4175 54.9613 84.4175 82.6988C84.4175 109.809 80.3431 119.682 71.7241 119.682ZM189.125 134.413V114.667H146.03C146.5 109.026 155.276 101.504 161.857 96.4892C182.073 81.2884 188.811 72.6694 188.811 57.7821C188.811 37.0965 174.394 26.9104 152.925 26.9104C131.456 26.9104 118.919 40.5441 118.919 62.6401H140.702C140.702 49.7899 146.5 46.3423 154.022 46.3423C161.074 46.3423 166.715 48.6929 166.715 58.5656C166.715 66.2444 162.954 71.5725 148.537 82.072C121.897 101.661 117.666 115.138 117.509 134.413H189.125Z" stroke="#303030"/>
</svg>
