<svg width="310" height="59" viewBox="0 0 310 59" fill="none" xmlns="http://www.w3.org/2000/svg">
<path d="M42.432 43.5171V44.5171H43.1904L43.3949 43.7868L42.432 43.5171ZM54.336 1.02109L55.2989 1.29082L55.6546 0.0210876H54.336V1.02109ZM45.248 1.02109V0.0210876H44.4681L44.2781 0.777491L45.248 1.02109ZM38.336 28.5411L37.3625 28.7697L39.3059 28.7847L38.336 28.5411ZM31.872 1.02109L32.8455 0.792427L32.6643 0.0210876H31.872V1.02109ZM22.528 1.02109V0.0210876H21.7193L21.5501 0.811869L22.528 1.02109ZM16.64 28.5411L15.6707 28.7868L17.6179 28.7503L16.64 28.5411ZM9.664 1.02109L10.6333 0.775371L10.4421 0.0210876H9.664V1.02109ZM0.192 1.02109V0.0210876H-1.13044L-0.770177 1.29351L0.192 1.02109ZM12.224 43.5171L11.2618 43.7895L11.4678 44.5171H12.224V43.5171ZM20.544 43.5171V44.5171H21.3301L21.5157 43.7533L20.544 43.5171ZM27.264 15.8691L28.2367 15.6372L26.2923 15.6329L27.264 15.8691ZM33.856 43.5171L32.8833 43.749L33.0664 44.5171H33.856V43.5171ZM43.3949 43.7868L55.2989 1.29082L53.3731 0.75135L41.4691 43.2474L43.3949 43.7868ZM54.336 0.0210876H45.248V2.02109H54.336V0.0210876ZM44.2781 0.777491L37.3661 28.2975L39.3059 28.7847L46.2179 1.26468L44.2781 0.777491ZM39.3095 28.3124L32.8455 0.792427L30.8985 1.24975L37.3625 28.7697L39.3095 28.3124ZM31.872 0.0210876H22.528V2.02109H31.872V0.0210876ZM21.5501 0.811869L15.6621 28.3319L17.6179 28.7503L23.5059 1.23031L21.5501 0.811869ZM17.6093 28.2954L10.6333 0.775371L8.69466 1.2668L15.6707 28.7868L17.6093 28.2954ZM9.664 0.0210876H0.192V2.02109H9.664V0.0210876ZM-0.770177 1.29351L11.2618 43.7895L13.1862 43.2447L1.15418 0.748664L-0.770177 1.29351ZM12.224 44.5171H20.544V42.5171H12.224V44.5171ZM21.5157 43.7533L28.2357 16.1053L26.2923 15.6329L19.5723 43.2809L21.5157 43.7533ZM26.2913 16.101L32.8833 43.749L34.8287 43.2852L28.2367 15.6372L26.2913 16.101ZM33.856 44.5171H42.432V42.5171H33.856V44.5171ZM64.9885 43.5171V44.5171H65.9885V43.5171H64.9885ZM64.9885 12.0291H65.9885V11.0291H64.9885V12.0291ZM56.6685 12.0291V11.0291H55.6685V12.0291H56.6685ZM56.6685 43.5171H55.6685V44.5171H56.6685V43.5171ZM64.9885 8.25309V9.25309H65.9885V8.25309H64.9885ZM64.9885 0.509087H65.9885V-0.490913H64.9885V0.509087ZM56.6685 0.509087V-0.490913H55.6685V0.509087H56.6685ZM56.6685 8.25309H55.6685V9.25309H56.6685V8.25309ZM65.9885 43.5171V12.0291H63.9885V43.5171H65.9885ZM64.9885 11.0291H56.6685V13.0291H64.9885V11.0291ZM55.6685 12.0291V43.5171H57.6685V12.0291H55.6685ZM56.6685 44.5171H64.9885V42.5171H56.6685V44.5171ZM65.9885 8.25309V0.509087H63.9885V8.25309H65.9885ZM64.9885 -0.490913H56.6685V1.50909H64.9885V-0.490913ZM55.6685 0.509087V8.25309H57.6685V0.509087H55.6685ZM56.6685 9.25309H64.9885V7.25309H56.6685V9.25309ZM77.109 43.5171V44.5171H78.109V43.5171H77.109ZM87.029 19.7091L86.8646 20.6955L88.029 20.8895V19.7091H87.029ZM87.029 11.1971H88.029V10.1971H87.029V11.1971ZM76.597 15.8051H75.597V19.1719L77.4349 16.351L76.597 15.8051ZM76.597 12.0291H77.597V11.0291H76.597V12.0291ZM68.789 12.0291V11.0291H67.789V12.0291H68.789ZM68.789 43.5171H67.789V44.5171H68.789V43.5171ZM78.109 43.5171V27.1331H76.109V43.5171H78.109ZM78.109 27.1331C78.109 24.756 78.6954 23.1513 79.7063 22.134C80.7161 21.1178 82.3191 20.5171 84.725 20.5171V18.5171C82.0109 18.5171 79.8059 19.1964 78.2877 20.7242C76.7706 22.2509 76.109 24.4541 76.109 27.1331H78.109ZM84.725 20.5171C85.4372 20.5171 86.1502 20.5764 86.8646 20.6955L87.1934 18.7227C86.3718 18.5858 85.5488 18.5171 84.725 18.5171V20.5171ZM88.029 19.7091V11.1971H86.029V19.7091H88.029ZM87.029 10.1971H85.941V12.1971H87.029V10.1971ZM85.941 10.1971C84.2226 10.1971 82.4134 10.2899 80.6592 10.988C78.8752 11.698 77.2327 12.9974 75.7591 15.2592L77.4349 16.351C78.7133 14.3888 80.0469 13.3842 81.3988 12.8462C82.7806 12.2963 84.2674 12.1971 85.941 12.1971V10.1971ZM77.597 15.8051V12.0291H75.597V15.8051H77.597ZM76.597 11.0291H68.789V13.0291H76.597V11.0291ZM67.789 12.0291V43.5171H69.789V12.0291H67.789ZM68.789 44.5171H77.109V42.5171H68.789V44.5171ZM95.286 24.7011L94.2887 24.6278L94.2098 25.7011H95.286V24.7011ZM108.15 24.7011V25.7011H109.178L109.15 24.6737L108.15 24.7011ZM116.726 29.9491V30.9491H117.726V29.9491H116.726ZM116.278 34.2371L117.237 34.5218L117.618 33.2371H116.278V34.2371ZM107.702 34.2371V33.2371H106.932L106.735 33.9812L107.702 34.2371ZM95.03 29.9491V28.9491H93.9745L94.0315 30.0031L95.03 29.9491ZM96.2833 24.7744C96.5723 20.8443 98.977 18.7891 101.686 18.7891V16.7891C97.739 16.7891 94.6397 19.8539 94.2887 24.6278L96.2833 24.7744ZM101.686 18.7891C103.091 18.7891 104.417 19.2698 105.402 20.2146C106.378 21.1514 107.093 22.6165 107.15 24.7285L109.15 24.6737C109.079 22.1137 108.194 20.1228 106.786 18.7716C105.387 17.4284 103.545 16.7891 101.686 16.7891V18.7891ZM108.15 23.7011H95.286V25.7011H108.15V23.7011ZM117.726 29.9491C117.726 23.5966 116.427 18.6476 113.741 15.2706C111.022 11.8524 107.006 10.1971 101.942 10.1971V12.1971C106.542 12.1971 109.918 13.6778 112.175 16.5156C114.465 19.3945 115.726 23.8216 115.726 29.9491H117.726ZM101.942 10.1971C96.8858 10.1971 92.7936 11.8444 89.9712 14.8665C87.1574 17.8795 85.71 22.1466 85.71 27.1971H87.71C87.71 22.5196 89.0466 18.7867 91.4328 16.2316C93.8104 13.6858 97.3342 12.1971 101.942 12.1971V10.1971ZM85.71 27.1971C85.71 33.0279 87.0513 37.6019 89.9087 40.7206C92.7811 43.8557 97.0267 45.3491 102.454 45.3491V43.3491C97.3853 43.3491 93.7589 41.9625 91.3833 39.3696C88.9927 36.7602 87.71 32.7582 87.71 27.1971H85.71ZM102.454 45.3491C109.592 45.3491 115.184 41.4329 117.237 34.5218L115.319 33.9524C113.532 39.9692 108.756 43.3491 102.454 43.3491V45.3491ZM116.278 33.2371H107.702V35.2371H116.278V33.2371ZM106.735 33.9812C106.319 35.5532 104.502 36.7571 102.07 36.7571V38.7571C105.014 38.7571 107.933 37.273 108.669 34.493L106.735 33.9812ZM102.07 36.7571C100.292 36.7571 98.8719 36.0994 97.8555 34.9626C96.8251 33.8102 96.1474 32.0931 96.0285 29.8951L94.0315 30.0031C94.1686 32.5411 94.9629 34.728 96.3645 36.2956C97.7801 37.8788 99.7525 38.7571 102.07 38.7571V36.7571ZM95.03 30.9491H116.726V28.9491H95.03V30.9491ZM128.557 43.5171V44.5171H129.557V43.5171H128.557ZM128.557 17.9171V16.9171H127.558V17.9171H128.557ZM133.934 17.9171V18.9171H134.934V17.9171H133.934ZM133.934 12.0291H134.934V11.0291H133.934V12.0291ZM128.557 12.0291H127.558V13.0291H128.557V12.0291ZM133.742 7.22909V8.22909H134.742V7.22909H133.742ZM133.742 0.509087H134.742V-0.490913H133.742V0.509087ZM120.366 12.0291V13.0291H121.366V12.0291H120.366ZM115.693 12.0291V11.0291H114.693V12.0291H115.693ZM115.693 17.9171H114.693V18.9171H115.693V17.9171ZM120.366 17.9171H121.366V16.9171H120.366V17.9171ZM120.366 43.5171H119.366V44.5171H120.366V43.5171ZM129.557 43.5171V17.9171H127.558V43.5171H129.557ZM128.557 18.9171H133.934V16.9171H128.557V18.9171ZM134.934 17.9171V12.0291H132.934V17.9171H134.934ZM133.934 11.0291H128.557V13.0291H133.934V11.0291ZM129.557 12.0291C129.557 10.2122 129.819 9.40824 130.261 8.97933C130.718 8.53665 131.638 8.22909 133.742 8.22909V6.22909C131.621 6.22909 129.949 6.49753 128.87 7.54285C127.776 8.60193 127.558 10.198 127.558 12.0291H129.557ZM134.742 7.22909V0.509087H132.742V7.22909H134.742ZM133.742 -0.490913C129.142 -0.490913 125.52 0.491366 123.04 2.63214C120.532 4.79749 119.366 7.99549 119.366 12.0291H121.366C121.366 8.38268 122.407 5.82068 124.347 4.14603C126.315 2.44681 129.381 1.50909 133.742 1.50909V-0.490913ZM120.366 11.0291H115.693V13.0291H120.366V11.0291ZM114.693 12.0291V17.9171H116.693V12.0291H114.693ZM115.693 18.9171H120.366V16.9171H115.693V18.9171ZM119.366 17.9171V43.5171H121.366V17.9171H119.366ZM120.366 44.5171H128.557V42.5171H120.366V44.5171ZM144.296 43.5171V44.5171H145.296V43.5171H144.296ZM154.217 19.7091L154.052 20.6955L155.217 20.8895V19.7091H154.217ZM154.217 11.1971H155.217V10.1971H154.217V11.1971ZM143.785 15.8051H142.785V19.1719L144.622 16.351L143.785 15.8051ZM143.785 12.0291H144.785V11.0291H143.785V12.0291ZM135.977 12.0291V11.0291H134.977V12.0291H135.977ZM135.977 43.5171H134.977V44.5171H135.977V43.5171ZM145.296 43.5171V27.1331H143.296V43.5171H145.296ZM145.296 27.1331C145.296 24.756 145.883 23.1513 146.894 22.134C147.904 21.1178 149.507 20.5171 151.913 20.5171V18.5171C149.198 18.5171 146.993 19.1964 145.475 20.7242C143.958 22.2509 143.296 24.4541 143.296 27.1331H145.296ZM151.913 20.5171C152.625 20.5171 153.338 20.5764 154.052 20.6955L154.381 18.7227C153.559 18.5858 152.736 18.5171 151.913 18.5171V20.5171ZM155.217 19.7091V11.1971H153.217V19.7091H155.217ZM154.217 10.1971H153.128V12.1971H154.217V10.1971ZM153.128 10.1971C151.41 10.1971 149.601 10.2899 147.847 10.988C146.063 11.698 144.42 12.9974 142.947 15.2592L144.622 16.351C145.901 14.3888 147.234 13.3842 148.586 12.8462C149.968 12.2963 151.455 12.1971 153.128 12.1971V10.1971ZM144.785 15.8051V12.0291H142.785V15.8051H144.785ZM143.785 11.0291H135.977V13.0291H143.785V11.0291ZM134.977 12.0291V43.5171H136.977V12.0291H134.977ZM135.977 44.5171H144.296V42.5171H135.977V44.5171ZM174.048 31.5491L173.049 31.5306L173.049 31.5319L174.048 31.5491ZM168.736 29.9491L168.552 28.9662L168.551 28.9665L168.736 29.9491ZM174.113 28.0931L175.112 28.1116L175.158 25.6332L173.405 27.386L174.113 28.0931ZM182.432 43.5171V44.5171H183.432V43.5171H182.432ZM155.169 22.2691L154.169 22.2495L154.149 23.2691H155.169V22.2691ZM162.913 22.2691V23.2691H163.785L163.903 22.4042L162.913 22.2691ZM168.609 24.4451L168.745 25.4358L168.746 25.4356L168.609 24.4451ZM174.176 40.7011L175.174 40.6346L175.018 38.2937L173.438 40.0273L174.176 40.7011ZM174.689 43.5171L173.74 43.8333L173.968 44.5171H174.689V43.5171ZM173.049 31.5319C172.995 34.6461 170.293 37.3971 166.497 37.3971V39.3971C171.276 39.3971 174.974 35.8761 175.048 31.5663L173.049 31.5319ZM166.497 37.3971C165.309 37.3971 164.576 37.1338 164.148 36.7665C163.748 36.4233 163.465 35.8579 163.465 34.8771H161.465C161.465 36.2643 161.885 37.4589 162.845 38.2837C163.777 39.0844 165.06 39.3971 166.497 39.3971V37.3971ZM163.465 34.8771C163.465 33.7606 163.764 33.0721 164.451 32.5207C165.224 31.8993 166.584 31.3741 168.922 30.9317L168.551 28.9665C166.153 29.4201 164.377 30.0148 163.198 30.9615C161.933 31.978 161.465 33.3056 161.465 34.8771H163.465ZM168.921 30.932C170.462 30.6429 171.657 30.3766 172.583 30.0649C173.516 29.7512 174.252 29.3676 174.82 28.8002L173.405 27.386C173.141 27.6506 172.725 27.907 171.946 28.1693C171.16 28.4335 170.083 28.6793 168.552 28.9662L168.921 30.932ZM173.113 28.0746L173.049 31.5306L175.048 31.5676L175.112 28.1116L173.113 28.0746ZM183.432 43.5171V23.6131H181.432V43.5171H183.432ZM183.432 23.6131C183.432 19.5234 182.545 16.1031 180.164 13.722C177.784 11.3425 174.11 10.1971 168.992 10.1971V12.1971C173.859 12.1971 176.905 13.2917 178.749 15.1362C180.592 16.9791 181.432 19.7668 181.432 23.6131H183.432ZM168.992 10.1971C163.806 10.1971 160.099 11.3603 157.669 13.5407C155.221 15.7367 154.236 18.8108 154.169 22.2495L156.168 22.2887C156.229 19.1993 157.1 16.7375 159.004 15.0295C160.926 13.3058 164.067 12.1971 168.992 12.1971V10.1971ZM155.169 23.2691H162.913V21.2691H155.169V23.2691ZM163.903 22.4042C164.076 21.1349 164.49 20.2229 165.159 19.6194C165.823 19.02 166.88 18.5971 168.609 18.5971V16.5971C166.561 16.5971 164.962 17.1021 163.818 18.1348C162.679 19.1632 162.133 20.5873 161.922 22.134L163.903 22.4042ZM168.609 18.5971C170.137 18.5971 171.262 18.8851 171.969 19.3153C172.633 19.7197 172.921 20.2332 172.921 20.8611H174.921C174.921 19.441 174.184 18.3224 173.008 17.6069C171.875 16.9171 170.344 16.5971 168.609 16.5971V18.5971ZM172.921 20.8611C172.921 21.3232 172.858 21.6325 172.76 21.8552C172.669 22.0619 172.525 22.2469 172.26 22.4274C171.667 22.8329 170.556 23.1658 168.471 23.4545L168.746 25.4356C170.821 25.1483 172.366 24.7773 173.389 24.0788C173.932 23.7073 174.336 23.2403 174.591 22.661C174.839 22.0977 174.921 21.4869 174.921 20.8611H172.921ZM168.472 23.4544C164.341 24.0221 160.498 24.5809 157.719 26.2429C156.293 27.0962 155.129 28.2461 154.332 29.8273C153.542 31.3965 153.145 33.3293 153.145 35.7091H155.145C155.145 33.5449 155.507 31.9417 156.119 30.7269C156.724 29.5241 157.604 28.642 158.746 27.9593C161.103 26.5493 164.492 26.0201 168.745 25.4358L168.472 23.4544ZM153.145 35.7091C153.145 38.494 154.057 40.9524 156.044 42.6999C158.013 44.4321 160.905 45.3491 164.641 45.3491V43.3491C161.208 43.3491 158.852 42.5061 157.365 41.1982C155.896 39.9058 155.145 38.0442 155.145 35.7091H153.145ZM164.641 45.3491C169.09 45.3491 172.707 43.7968 174.915 41.3748L173.438 40.0273C171.678 41.9574 168.639 43.3491 164.641 43.3491V45.3491ZM173.179 40.7676C173.247 41.7902 173.451 42.9657 173.74 43.8333L175.637 43.2009C175.414 42.5325 175.234 41.532 175.174 40.6346L173.179 40.7676ZM174.689 44.5171H182.432V42.5171H174.689V44.5171ZM231.158 43.5171V44.5171H232.158V43.5171H231.158ZM211.893 16.1891L211.061 16.7438L212.017 18.1776L212.788 16.6363L211.893 16.1891ZM193.91 16.6371H192.91L194.801 17.0898L193.91 16.6371ZM193.91 12.0291H194.91V11.0291H193.91V12.0291ZM186.102 12.0291V11.0291H185.102V12.0291H186.102ZM186.102 43.5171H185.102V44.5171H186.102V43.5171ZM194.421 43.5171V44.5171H195.421V43.5171H194.421ZM204.469 43.5171H203.469V44.5171H204.469V43.5171ZM212.79 43.5171V44.5171H213.79V43.5171H212.79ZM223.03 43.5171H222.03V44.5171H223.03V43.5171ZM232.158 43.5171V21.6931H230.158V43.5171H232.158ZM232.158 21.6931C232.158 15.2488 227.29 10.1971 220.406 10.1971V12.1971C226.193 12.1971 230.158 16.3614 230.158 21.6931H232.158ZM220.406 10.1971C218.293 10.1971 216.414 10.6063 214.81 11.5307C213.199 12.4589 211.937 13.8658 210.999 15.7419L212.788 16.6363C213.578 15.0564 214.588 13.9673 215.809 13.2635C217.037 12.5559 218.55 12.1971 220.406 12.1971V10.1971ZM212.726 15.6344C211.477 13.7609 210.255 12.3668 208.711 11.4622C207.153 10.5495 205.374 10.1971 203.126 10.1971V12.1971C205.165 12.1971 206.554 12.5167 207.7 13.1879C208.86 13.8674 209.878 14.9692 211.061 16.7438L212.726 15.6344ZM203.126 10.1971C200.949 10.1971 198.987 10.5308 197.266 11.4818C195.533 12.4393 194.143 13.9682 193.018 16.1844L194.801 17.0898C195.788 15.146 196.926 13.9548 198.233 13.2323C199.552 12.5034 201.142 12.1971 203.126 12.1971V10.1971ZM194.91 16.6371V12.0291H192.91V16.6371H194.91ZM193.91 11.0291H186.102V13.0291H193.91V11.0291ZM185.102 12.0291V43.5171H187.102V12.0291H185.102ZM186.102 44.5171H194.421V42.5171H186.102V44.5171ZM195.421 43.5171V24.3811H193.421V43.5171H195.421ZM195.421 24.3811C195.421 22.4503 195.832 21.1831 196.472 20.4109C197.082 19.6736 198.028 19.2371 199.478 19.2371V17.2371C197.599 17.2371 196.017 17.8245 194.931 19.1353C193.875 20.4111 193.421 22.2159 193.421 24.3811H195.421ZM199.478 19.2371C201.234 19.2371 202.08 19.5566 202.573 20.1486C203.119 20.805 203.469 22.0615 203.469 24.5731H205.469C205.469 22.0287 205.148 20.1172 204.11 18.8695C203.019 17.5575 201.369 17.2371 199.478 17.2371V19.2371ZM203.469 24.5731V43.5171H205.469V24.5731H203.469ZM204.469 44.5171H212.79V42.5171H204.469V44.5171ZM213.79 43.5171V24.7011H211.79V43.5171H213.79ZM213.79 24.7011C213.79 21.1765 215.792 18.9811 218.102 18.9811V16.9811C214.267 16.9811 211.79 20.5457 211.79 24.7011H213.79ZM218.102 18.9811C219.236 18.9811 220.182 19.4864 220.872 20.3998C221.576 21.3326 222.03 22.7223 222.03 24.4451H224.03C224.03 22.3919 223.491 20.5496 222.467 19.1944C221.429 17.8198 219.911 16.9811 218.102 16.9811V18.9811ZM222.03 24.4451V43.5171H224.03V24.4451H222.03ZM223.03 44.5171H231.158V42.5171H223.03V44.5171ZM242.863 43.5171V44.5171H243.863V43.5171H242.863ZM242.863 12.0291H243.863V11.0291H242.863V12.0291ZM234.544 12.0291V11.0291H233.544V12.0291H234.544ZM234.544 43.5171H233.544V44.5171H234.544V43.5171ZM242.863 8.25309V9.25309H243.863V8.25309H242.863ZM242.863 0.509087H243.863V-0.490913H242.863V0.509087ZM234.544 0.509087V-0.490913H233.544V0.509087H234.544ZM234.544 8.25309H233.544V9.25309H234.544V8.25309ZM243.863 43.5171V12.0291H241.863V43.5171H243.863ZM242.863 11.0291H234.544V13.0291H242.863V11.0291ZM233.544 12.0291V43.5171H235.544V12.0291H233.544ZM234.544 44.5171H242.863V42.5171H234.544V44.5171ZM243.863 8.25309V0.509087H241.863V8.25309H243.863ZM242.863 -0.490913H234.544V1.50909H242.863V-0.490913ZM233.544 0.509087V8.25309H235.544V0.509087H233.544ZM234.544 9.25309H242.863V7.25309H234.544V9.25309ZM275.208 43.5171V44.5171H276.208V43.5171H275.208ZM254.6 16.6371H253.6L255.478 17.1159L254.6 16.6371ZM254.6 12.0291H255.6V11.0291H254.6V12.0291ZM246.664 12.0291V11.0291H245.664V12.0291H246.664ZM246.664 43.5171H245.664V44.5171H246.664V43.5171ZM254.984 43.5171V44.5171H255.984V43.5171H254.984ZM266.824 43.5171H265.824V44.5171H266.824V43.5171ZM276.208 43.5171V21.6931H274.208V43.5171H276.208ZM276.208 21.6931C276.208 18.0461 275.026 15.1421 272.938 13.153C270.858 11.1718 267.983 10.1971 264.776 10.1971V12.1971C267.585 12.1971 269.926 13.0463 271.558 14.6012C273.182 16.1481 274.208 18.4921 274.208 21.6931H276.208ZM264.776 10.1971C262.122 10.1971 259.883 10.7013 258.03 11.721C256.17 12.7445 254.761 14.2531 253.722 16.1582L255.478 17.1159C256.359 15.501 257.51 14.2897 258.994 13.4732C260.485 12.6529 262.374 12.1971 264.776 12.1971V10.1971ZM255.6 16.6371V12.0291H253.6V16.6371H255.6ZM254.6 11.0291H246.664V13.0291H254.6V11.0291ZM245.664 12.0291V43.5171H247.664V12.0291H245.664ZM246.664 44.5171H254.984V42.5171H246.664V44.5171ZM255.984 43.5171V25.4691H253.984V43.5171H255.984ZM255.984 25.4691C255.984 23.1938 256.487 21.6686 257.332 20.7168C258.156 19.7881 259.457 19.2371 261.448 19.2371V17.2371C259.087 17.2371 257.156 17.902 255.836 19.3893C254.537 20.8536 253.984 22.9443 253.984 25.4691H255.984ZM261.448 19.2371C263.374 19.2371 264.333 19.5763 264.88 20.1854C265.46 20.8309 265.824 22.0416 265.824 24.4451H267.824C267.824 21.9846 267.484 20.0913 266.368 18.8488C265.219 17.5699 263.49 17.2371 261.448 17.2371V19.2371ZM265.824 24.4451V43.5171H267.824V24.4451H265.824ZM266.824 44.5171H275.208V42.5171H266.824V44.5171ZM285.956 45.2451H286.956V44.2451H285.956V45.2451ZM278.211 45.2451V44.2451H277.211V45.2451H278.211ZM309.124 12.0291H310.124V11.0291H309.124V12.0291ZM300.803 12.0291V11.0291H299.803V12.0291H300.803ZM300.803 15.9331L299.954 16.46L301.803 19.4437V15.9331H300.803ZM300.803 39.2931H301.803L299.878 38.9145L300.803 39.2931ZM293.956 36.2451C292.225 36.2451 290.734 35.4984 289.652 34.1292C288.558 32.7442 287.852 30.6746 287.852 28.0291H285.852C285.852 31.0156 286.649 33.554 288.083 35.369C289.529 37.1998 291.59 38.2451 293.956 38.2451V36.2451ZM287.852 28.0291C287.852 24.894 288.446 22.7477 289.452 21.4044C290.417 20.1151 291.866 19.4291 293.956 19.4291V17.4291C291.373 17.4291 289.27 18.3111 287.851 20.2057C286.473 22.0465 285.852 24.7002 285.852 28.0291H287.852ZM293.956 19.4291C296.065 19.4291 297.506 20.1371 298.467 21.495C299.476 22.9192 300.06 25.2001 300.06 28.5411H302.06C302.06 25.0341 301.459 22.259 300.1 20.3392C298.693 18.3531 296.582 17.4291 293.956 17.4291V19.4291ZM300.06 28.5411C300.06 31.0079 299.347 32.9421 298.254 34.2413C297.17 35.5307 295.672 36.2451 293.956 36.2451V38.2451C296.271 38.2451 298.325 37.2635 299.785 35.5289C301.236 33.804 302.06 31.3863 302.06 28.5411H300.06ZM299.803 44.4771C299.803 46.249 299.064 47.6646 297.857 48.6563C296.633 49.6614 294.885 50.2611 292.867 50.2611V52.2611C295.266 52.2611 297.486 51.5487 299.126 50.2019C300.783 48.8416 301.803 46.8652 301.803 44.4771H299.803ZM292.867 50.2611C290.958 50.2611 289.483 49.7474 288.501 48.9088C287.538 48.0862 286.956 46.8719 286.956 45.2451H284.956C284.956 47.3943 285.749 49.188 287.202 50.4294C288.636 51.6548 290.617 52.2611 292.867 52.2611V50.2611ZM285.956 44.2451H278.211V46.2451H285.956V44.2451ZM277.211 45.2451C277.211 49.5968 278.952 53.1757 281.896 55.6505C284.823 58.1114 288.874 59.4291 293.444 59.4291V57.4291C289.245 57.4291 285.68 56.2188 283.183 54.1197C280.703 52.0345 279.211 49.0214 279.211 45.2451H277.211ZM293.444 59.4291C298.015 59.4291 302.186 58.094 305.229 55.4386C308.29 52.7678 310.124 48.8353 310.124 43.8371H308.124C308.124 48.3109 306.501 51.6744 303.914 53.9316C301.309 56.2042 297.64 57.4291 293.444 57.4291V59.4291ZM310.124 43.8371V12.0291H308.124V43.8371H310.124ZM309.124 11.0291H300.803V13.0291H309.124V11.0291ZM299.803 12.0291V15.9331H301.803V12.0291H299.803ZM301.653 15.4061C300.582 13.6781 299.243 12.3616 297.604 11.4835C295.967 10.6071 294.086 10.1971 291.971 10.1971V12.1971C293.825 12.1971 295.368 12.5551 296.659 13.2466C297.948 13.9366 299.041 14.9881 299.954 16.46L301.653 15.4061ZM291.971 10.1971C283.673 10.1971 277.211 17.3764 277.211 27.5811H279.211C279.211 18.2018 285.038 12.1971 291.971 12.1971V10.1971ZM277.211 27.5811C277.211 31.8309 278.13 36.1138 280.491 39.361C282.887 42.6576 286.687 44.7731 292.164 44.7731V42.7731C287.272 42.7731 284.096 40.9206 282.108 38.1852C280.085 35.4004 279.211 31.5873 279.211 27.5811H277.211ZM292.164 44.7731C296.458 44.7731 300.357 43.0245 301.729 39.6717L299.878 38.9145C298.946 41.1937 296.061 42.7731 292.164 42.7731V44.7731ZM299.803 39.2931V44.4771H301.803V39.2931H299.803Z" fill="black"/>
</svg>
